<?xml version="1.0" encoding="UTF-8" standalone="no"?>
<!-- Created with Inkscape (http://www.inkscape.org/) -->

<svg
   xmlns:dc="http://purl.org/dc/elements/1.1/"
   xmlns:cc="http://creativecommons.org/ns#"
   xmlns:rdf="http://www.w3.org/1999/02/22-rdf-syntax-ns#"
   xmlns:svg="http://www.w3.org/2000/svg"
   xmlns="http://www.w3.org/2000/svg"
   xmlns:sodipodi="http://sodipodi.sourceforge.net/DTD/sodipodi-0.dtd"
   xmlns:inkscape="http://www.inkscape.org/namespaces/inkscape"
   width="210mm"
   height="105mm"
   viewBox="0 0 210 105"
   version="1.1"
   id="svg8"
   inkscape:version="0.92.1 r15371"
   sodipodi:docname="struct.svg">
  <defs
     id="defs2" />
  <sodipodi:namedview
     id="base"
     pagecolor="#ffffff"
     bordercolor="#666666"
     borderopacity="1.0"
     inkscape:pageopacity="0.0"
     inkscape:pageshadow="2"
     inkscape:zoom="0.98994949"
     inkscape:cx="470.1761"
     inkscape:cy="205.12027"
     inkscape:document-units="mm"
     inkscape:current-layer="layer1"
     showgrid="false"
     inkscape:window-width="1920"
     inkscape:window-height="1046"
     inkscape:window-x="-11"
     inkscape:window-y="-11"
     inkscape:window-maximized="1"
     showguides="true"
     inkscape:guide-bbox="true"
     inkscape:snap-page="true">
    <sodipodi:guide
       position="109.14062,11.150297"
       orientation="0,1"
       id="guide5043"
       inkscape:locked="false" />
  </sodipodi:namedview>
  <metadata
     id="metadata5">
    <rdf:RDF>
      <cc:Work
         rdf:about="">
        <dc:format>image/svg+xml</dc:format>
        <dc:type
           rdf:resource="http://purl.org/dc/dcmitype/StillImage" />
        <dc:title></dc:title>
      </cc:Work>
    </rdf:RDF>
  </metadata>
  <g
     inkscape:label="Calque 1"
     inkscape:groupmode="layer"
     id="layer1"
     transform="translate(0,-192)">
    <rect
       style="opacity:1;fill:#ffffff;fill-opacity:1;stroke:none;stroke-width:0.9933303;stroke-linecap:round;stroke-linejoin:miter;stroke-miterlimit:4;stroke-dasharray:none;stroke-dashoffset:10.54488182;stroke-opacity:1"
       id="rect5048"
       width="210"
       height="104.99999"
       x="0"
       y="192"
       rx="0.281948"
       ry="0.28123602" />
    <flowRoot
       xml:space="preserve"
       id="flowRoot4616"
       style="font-style:normal;font-variant:normal;font-weight:normal;font-stretch:normal;font-size:18.66666603px;line-height:1;font-family:'Fira Sans';-inkscape-font-specification:'Fira Sans, Normal';font-variant-ligatures:normal;font-variant-caps:normal;font-variant-numeric:normal;font-feature-settings:normal;text-align:start;letter-spacing:0px;word-spacing:0px;writing-mode:lr-tb;text-anchor:start;fill:#000000;fill-opacity:1;stroke:none"
       transform="scale(0.26458333)"><flowRegion
         id="flowRegion4618"><rect
           id="rect4620"
           width="60.104076"
           height="38.890873"
           x="265.92267"
           y="161.61208" /></flowRegion><flowPara
         id="flowPara4622">ÉEchap.</flowPara></flowRoot>    <path
       style="fill:none;stroke:#000000;stroke-width:0.26458332px;stroke-linecap:butt;stroke-linejoin:miter;stroke-opacity:1"
       d="m 532.66816,63.940978 v 0 -3e-6"
       id="path4546"
       inkscape:connector-curvature="0" />
    <rect
       style="opacity:1;fill:#eeeeee;fill-opacity:1;stroke:#000000;stroke-width:0.23497552;stroke-linecap:round;stroke-linejoin:miter;stroke-miterlimit:4;stroke-dasharray:none;stroke-dashoffset:10.54488182;stroke-opacity:1"
       id="rect4515"
       width="23.694141"
       height="14.643784"
       x="5.9786067"
       y="197.14528"
       rx="0.1785832"
       ry="0.1785832" />
    <rect
       style="opacity:1;fill:#eeeeee;fill-opacity:1;stroke:#000000;stroke-width:0.23497552;stroke-linecap:round;stroke-linejoin:miter;stroke-miterlimit:4;stroke-dasharray:none;stroke-dashoffset:10.54488182;stroke-opacity:1"
       id="rect4515-7"
       width="23.694141"
       height="14.643784"
       x="31.006165"
       y="197.14528"
       rx="0.1785832"
       ry="0.1785832" />
    <rect
       style="opacity:1;fill:#eeeeee;fill-opacity:1;stroke:#000000;stroke-width:0.23497552;stroke-linecap:round;stroke-linejoin:miter;stroke-miterlimit:4;stroke-dasharray:none;stroke-dashoffset:10.54488182;stroke-opacity:1"
       id="rect4515-6"
       width="23.694141"
       height="14.643784"
       x="56.033722"
       y="197.14528"
       rx="0.1785832"
       ry="0.1785832" />
    <rect
       style="opacity:1;fill:#eeeeee;fill-opacity:1;stroke:#000000;stroke-width:0.23497552;stroke-linecap:round;stroke-linejoin:miter;stroke-miterlimit:4;stroke-dasharray:none;stroke-dashoffset:10.54488182;stroke-opacity:1"
       id="rect4515-3"
       width="23.694141"
       height="14.643784"
       x="80.786194"
       y="197.14528"
       rx="0.1785832"
       ry="0.1785832" />
    <rect
       style="opacity:1;fill:#eeeeee;fill-opacity:1;stroke:#000000;stroke-width:0.23497552;stroke-linecap:round;stroke-linejoin:miter;stroke-miterlimit:4;stroke-dasharray:none;stroke-dashoffset:10.54488182;stroke-opacity:1"
       id="rect4515-2"
       width="23.694141"
       height="14.643784"
       x="105.53867"
       y="197.14528"
       rx="0.1785832"
       ry="0.1785832" />
    <rect
       style="opacity:1;fill:#eeeeee;fill-opacity:1;stroke:#000000;stroke-width:0.23497552;stroke-linecap:round;stroke-linejoin:miter;stroke-miterlimit:4;stroke-dasharray:none;stroke-dashoffset:10.54488182;stroke-opacity:1"
       id="rect4515-0"
       width="23.694141"
       height="14.643784"
       x="130.29114"
       y="197.14528"
       rx="0.1785832"
       ry="0.1785832" />
    <rect
       style="opacity:1;fill:#eeeeee;fill-opacity:1;stroke:#000000;stroke-width:0.23497552;stroke-linecap:round;stroke-linejoin:miter;stroke-miterlimit:4;stroke-dasharray:none;stroke-dashoffset:10.54488182;stroke-opacity:1"
       id="rect4515-6-8"
       width="23.694141"
       height="14.643785"
       x="80.786194"
       y="212.84738"
       rx="0.1785832"
       ry="0.1785832" />
    <rect
       style="opacity:1;fill:#eeeeee;fill-opacity:1;stroke:#000000;stroke-width:0.23497552;stroke-linecap:round;stroke-linejoin:miter;stroke-miterlimit:4;stroke-dasharray:none;stroke-dashoffset:10.54488182;stroke-opacity:1"
       id="rect4515-3-3"
       width="23.694141"
       height="14.643785"
       x="105.53867"
       y="212.84738"
       rx="0.1785832"
       ry="0.1785832" />
    <rect
       style="opacity:1;fill:#eeeeee;fill-opacity:1;stroke:#000000;stroke-width:0.23497552;stroke-linecap:round;stroke-linejoin:miter;stroke-miterlimit:4;stroke-dasharray:none;stroke-dashoffset:10.54488182;stroke-opacity:1"
       id="rect4515-2-1"
       width="23.694141"
       height="14.643785"
       x="130.29117"
       y="212.84738"
       rx="0.1785832"
       ry="0.1785832" />
    <rect
       style="opacity:1;fill:#eeeeee;fill-opacity:1;stroke:#000000;stroke-width:0.23497552;stroke-linecap:round;stroke-linejoin:miter;stroke-miterlimit:4;stroke-dasharray:none;stroke-dashoffset:10.54488182;stroke-opacity:1"
       id="rect4515-6-1"
       width="23.694141"
       height="14.643785"
       x="80.786194"
       y="228.64868"
       rx="0.1785832"
       ry="0.1785832" />
    <rect
       style="opacity:1;fill:#eeeeee;fill-opacity:1;stroke:#000000;stroke-width:0.23497552;stroke-linecap:round;stroke-linejoin:miter;stroke-miterlimit:4;stroke-dasharray:none;stroke-dashoffset:10.54488182;stroke-opacity:1"
       id="rect4515-3-7"
       width="23.694141"
       height="14.643785"
       x="105.53867"
       y="228.64868"
       rx="0.1785832"
       ry="0.1785832" />
    <rect
       style="opacity:1;fill:#eeeeee;fill-opacity:1;stroke:#000000;stroke-width:0.23497552;stroke-linecap:round;stroke-linejoin:miter;stroke-miterlimit:4;stroke-dasharray:none;stroke-dashoffset:10.54488182;stroke-opacity:1"
       id="rect4515-2-0"
       width="23.694141"
       height="14.643785"
       x="130.29117"
       y="228.64868"
       rx="0.1785832"
       ry="0.1785832" />
    <rect
       style="opacity:1;fill:#eeeeee;fill-opacity:1;stroke:#000000;stroke-width:0.23497552;stroke-linecap:round;stroke-linejoin:miter;stroke-miterlimit:4;stroke-dasharray:none;stroke-dashoffset:10.54488182;stroke-opacity:1"
       id="rect4515-6-3"
       width="23.694141"
       height="14.643785"
       x="80.786194"
       y="244.45"
       rx="0.1785832"
       ry="0.1785832" />
    <rect
       style="opacity:1;fill:#eeeeee;fill-opacity:1;stroke:#000000;stroke-width:0.23497552;stroke-linecap:round;stroke-linejoin:miter;stroke-miterlimit:4;stroke-dasharray:none;stroke-dashoffset:10.54488182;stroke-opacity:1"
       id="rect4515-2-6"
       width="23.694141"
       height="14.643785"
       x="130.29117"
       y="244.45"
       rx="0.1785832"
       ry="0.1785832" />
    <rect
       style="opacity:1;fill:#eeeeee;fill-opacity:1;stroke:#000000;stroke-width:0.23497552;stroke-linecap:round;stroke-linejoin:miter;stroke-miterlimit:4;stroke-dasharray:none;stroke-dashoffset:10.54488182;stroke-opacity:1"
       id="rect4515-6-3-6"
       width="23.694141"
       height="14.643786"
       x="130.29115"
       y="260.15213"
       rx="0.1785832"
       ry="0.1785832" />
    <rect
       style="opacity:1;fill:#eeeeee;fill-opacity:1;stroke:#000000;stroke-width:0.23497552;stroke-linecap:round;stroke-linejoin:miter;stroke-miterlimit:4;stroke-dasharray:none;stroke-dashoffset:10.54488182;stroke-opacity:1"
       id="rect4515-3-8"
       width="23.694141"
       height="14.643784"
       x="155.04359"
       y="197.14528"
       rx="0.1785832"
       ry="0.1785832" />
    <rect
       style="opacity:1;fill:#eeeeee;fill-opacity:1;stroke:#000000;stroke-width:0.23497552;stroke-linecap:round;stroke-linejoin:miter;stroke-miterlimit:4;stroke-dasharray:none;stroke-dashoffset:10.54488182;stroke-opacity:1"
       id="rect4515-2-8"
       width="23.694141"
       height="14.643784"
       x="179.79605"
       y="197.14528"
       rx="0.1785832"
       ry="0.1785832" />
    <rect
       style="opacity:1;fill:#eeeeee;fill-opacity:1;stroke:#000000;stroke-width:0.23497552;stroke-linecap:round;stroke-linejoin:miter;stroke-miterlimit:4;stroke-dasharray:none;stroke-dashoffset:10.54488182;stroke-opacity:1"
       id="rect4515-2-1-3"
       width="23.694141"
       height="14.643785"
       x="179.79605"
       y="212.94656"
       rx="0.1785832"
       ry="0.1785832" />
    <rect
       style="opacity:1;fill:#eeeeee;fill-opacity:1;stroke:#000000;stroke-width:0.23497552;stroke-linecap:round;stroke-linejoin:miter;stroke-miterlimit:4;stroke-dasharray:none;stroke-dashoffset:10.54488182;stroke-opacity:1"
       id="rect4515-2-0-9"
       width="23.694141"
       height="14.643785"
       x="179.79605"
       y="228.74786"
       rx="0.1785832"
       ry="0.1785832" />
    <path
       style="font-style:normal;font-variant:normal;font-weight:normal;font-stretch:normal;font-size:18.66666603px;line-height:1;font-family:'Fira Sans';-inkscape-font-specification:'Fira Sans, Normal';font-variant-ligatures:normal;font-variant-caps:normal;font-variant-numeric:normal;font-feature-settings:normal;text-align:start;letter-spacing:0px;word-spacing:0px;writing-mode:lr-tb;text-anchor:start;fill:#000000;fill-opacity:1;stroke:none;stroke-width:0.74081379"
       d="M 76.597656 38.736328 C 75.920059 38.736328 75.394531 39.248184 75.394531 39.925781 C 75.394531 40.465094 75.78217 40.878906 76.390625 40.878906 C 77.068223 40.878906 77.59375 40.366894 77.59375 39.703125 C 77.59375 39.149984 77.206111 38.736328 76.597656 38.736328 z M 645.60156 40.521484 C 644.92396 40.521484 644.39844 41.03334 644.39844 41.710938 C 644.39844 42.25025 644.78608 42.666016 645.39453 42.666016 C 646.07213 42.666016 646.59766 42.154004 646.59766 41.490234 C 646.59766 40.937093 646.21002 40.521484 645.60156 40.521484 z M 698.58398 40.521484 C 697.90639 40.521484 697.38086 41.03334 697.38086 41.710938 C 697.38086 42.25025 697.7685 42.666016 698.37695 42.666016 C 699.05455 42.666016 699.58008 42.154004 699.58008 41.490234 C 699.58008 40.937093 699.19244 40.521484 698.58398 40.521484 z M 72.294922 40.617188 L 70.830078 40.783203 L 70.373047 42.441406 L 69.169922 42.441406 L 68.990234 43.714844 L 70.125 43.714844 L 69.583984 47.544922 C 69.362728 49.093717 70.068006 49.964844 71.478516 49.964844 C 72.073142 49.964844 72.737561 49.798995 73.318359 49.439453 L 72.820312 48.263672 C 72.474599 48.429614 72.198915 48.527344 71.880859 48.527344 C 71.41069 48.527344 71.215544 48.277677 71.326172 47.558594 L 71.867188 43.714844 L 73.359375 43.714844 L 73.732422 42.441406 L 72.046875 42.441406 L 72.294922 40.617188 z M 81.208984 40.617188 L 79.742188 40.783203 L 79.285156 42.441406 L 78.082031 42.441406 L 77.902344 43.714844 L 79.037109 43.714844 L 78.498047 47.544922 C 78.27679 49.093717 78.982069 49.964844 80.392578 49.964844 C 80.987205 49.964844 81.649671 49.798995 82.230469 49.439453 L 81.734375 48.263672 C 81.388662 48.429614 81.111025 48.527344 80.792969 48.527344 C 80.322799 48.527344 80.129606 48.277677 80.240234 47.558594 L 80.779297 43.714844 L 82.273438 43.714844 L 82.646484 42.441406 L 80.958984 42.441406 L 81.208984 40.617188 z M 221.93945 40.878906 C 221.26186 40.878906 220.73633 41.390762 220.73633 42.068359 C 220.73633 42.607672 221.12397 43.021484 221.73242 43.021484 C 222.41002 43.021484 222.93555 42.511425 222.93555 41.847656 C 222.93555 41.294515 222.54791 40.878906 221.93945 40.878906 z M 279.22461 40.878906 C 278.54701 40.878906 278.02148 41.390762 278.02148 42.068359 C 278.02148 42.607672 278.40912 43.021484 279.01758 43.021484 C 279.69518 43.021484 280.2207 42.511425 280.2207 41.847656 C 280.2207 41.294515 279.83306 40.878906 279.22461 40.878906 z M 628.05078 41.101562 L 626.28125 41.296875 L 625.0918 49.746094 C 624.91203 51.073632 625.49137 51.75 626.59766 51.75 C 626.99868 51.75 627.42725 51.668052 627.81445 51.488281 L 627.55273 50.244141 C 627.41445 50.285626 627.27696 50.326172 627.13867 50.326172 C 626.87593 50.326172 626.77883 50.187823 626.82031 49.814453 L 628.05078 41.101562 z M 695.37305 41.101562 L 693.60352 41.296875 L 692.41406 49.746094 C 692.23429 51.073632 692.81559 51.75 693.92188 51.75 C 694.3229 51.75 694.75147 51.668052 695.13867 51.488281 L 694.875 50.244141 C 694.73671 50.285626 694.59922 50.326172 694.46094 50.326172 C 694.1982 50.326172 694.10109 50.187823 694.14258 49.814453 L 695.37305 41.101562 z M 728.43359 41.101562 L 726.67773 41.296875 L 725.28125 51.197266 C 726.30456 51.570636 727.13372 51.75 728.08789 51.75 C 731.25462 51.75 732.20898 48.97092 732.20898 46.882812 C 732.20898 45.057447 731.37926 44.019531 729.96875 44.019531 C 729.20818 44.019531 728.50283 44.337484 727.9082 44.890625 L 728.43359 41.101562 z M 705.76562 41.130859 L 705.24023 44.822266 C 704.85304 44.365924 704.2726 44.019531 703.48438 44.019531 C 700.96758 44.019531 700.01172 46.868538 700.01172 48.818359 C 700.01172 50.616067 700.80113 51.75 702.32227 51.75 C 703.30409 51.75 704.02366 51.184397 704.52148 50.423828 L 704.50781 51.542969 L 706.04102 51.542969 L 707.48047 41.310547 L 705.76562 41.130859 z M 255.02344 41.488281 L 254.49805 45.179688 C 254.11085 44.723346 253.52846 44.376953 252.74023 44.376953 C 250.22344 44.376953 249.26953 47.225959 249.26953 49.175781 C 249.26953 50.973489 250.05894 52.107422 251.58008 52.107422 C 252.5619 52.107422 253.27952 51.539866 253.77734 50.779297 L 253.76367 51.900391 L 255.29883 51.900391 L 256.73828 41.667969 L 255.02344 41.488281 z M 180.21875 41.517578 C 179.54115 41.517578 179.01562 42.029434 179.01562 42.707031 C 179.01562 43.246344 179.40326 43.662109 180.01172 43.662109 C 180.68932 43.662109 181.21484 43.150097 181.21484 42.486328 C 181.21484 41.933187 180.82721 41.517578 180.21875 41.517578 z M 599.94922 41.779297 C 596.49209 41.779297 595.17773 45.236332 595.17773 47.822266 C 595.17773 50.380542 596.60314 51.75 598.70508 51.75 C 600.01879 51.75 601.02748 51.197985 601.70508 50.617188 L 600.97266 49.482422 C 600.39186 49.897278 599.76932 50.285156 598.92578 50.285156 C 597.8195 50.285156 597.05859 49.593643 597.05859 47.878906 C 597.05859 45.984399 597.76369 43.191406 600.00391 43.191406 C 600.64002 43.191406 601.15225 43.397644 601.67773 43.8125 L 602.67383 42.845703 C 601.99623 42.168105 601.13847 41.779297 599.94922 41.779297 z M 688.62891 41.779297 C 686.27806 41.779297 685.11719 43.273554 685.11719 44.642578 C 685.11719 45.942459 685.91808 46.66139 687.63281 47.242188 C 688.84972 47.670872 689.25195 48.031073 689.25195 48.736328 C 689.25195 49.718153 688.4905 50.3125 687.25977 50.3125 C 686.29177 50.3125 685.58666 49.965877 685.00586 49.357422 L 683.92773 50.408203 C 684.63299 51.1826 685.69761 51.75 687.21875 51.75 C 690.0536 51.75 691.16016 50.048638 691.16016 48.513672 C 691.16016 46.978706 690.13559 46.302044 688.68359 45.845703 C 687.36988 45.40319 686.99805 45.099003 686.99805 44.462891 C 686.99805 43.647008 687.70193 43.177734 688.66992 43.177734 C 689.43049 43.177734 690.04014 43.411546 690.63477 43.978516 L 691.6582 42.982422 C 690.91146 42.221853 689.95644 41.779297 688.62891 41.779297 z M 39.339844 42.234375 C 38.648418 42.234375 37.916819 42.482945 37.15625 43.298828 L 37.169922 42.441406 L 35.648438 42.441406 L 34.195312 52.798828 L 35.939453 52.591797 L 36.353516 49.744141 C 36.726886 49.868597 37.142015 49.964844 37.708984 49.964844 C 40.599146 49.964844 41.59375 47.185763 41.59375 45.097656 C 41.59375 43.272291 40.764182 42.234375 39.339844 42.234375 z M 46.683594 42.234375 C 43.696633 42.234375 42.619141 45.041113 42.619141 47.101562 C 42.619141 48.830128 43.449566 49.964844 44.970703 49.964844 C 45.897214 49.964844 46.614984 49.453615 47.154297 48.720703 C 47.320239 49.508929 47.887712 49.854529 48.662109 49.9375 L 49.160156 48.775391 C 48.745301 48.609448 48.704295 48.347436 48.773438 47.849609 L 49.478516 42.939453 C 48.579662 42.469283 47.65159 42.234375 46.683594 42.234375 z M 54.640625 42.234375 C 51.626007 42.234375 50.519531 44.862908 50.519531 46.964844 C 50.519531 48.638095 51.363628 49.757812 52.884766 49.757812 C 53.68682 49.757812 54.377017 49.329002 54.888672 48.734375 L 54.779297 49.535156 C 54.55804 51.125436 53.699322 51.388672 52.828125 51.388672 C 52.136699 51.388672 51.418689 51.140478 50.837891 50.808594 L 50.228516 52.039062 C 50.975256 52.495404 51.986068 52.798828 52.871094 52.798828 C 54.917715 52.798828 56.134599 51.860228 56.494141 49.371094 L 57.447266 42.939453 C 56.56224 42.469283 55.62245 42.234375 54.640625 42.234375 z M 62.496094 42.234375 C 59.550618 42.234375 58.513672 44.930568 58.513672 46.921875 C 58.513672 48.774897 59.537989 49.964844 61.529297 49.964844 C 62.594093 49.964844 63.506539 49.59236 64.308594 49.025391 L 63.630859 47.917969 C 62.96709 48.388139 62.386425 48.595703 61.722656 48.595703 C 60.920602 48.595703 60.338361 48.208158 60.296875 47.074219 C 62.703038 46.825305 65.027344 46.230372 65.027344 44.169922 C 65.027344 43.132783 64.169345 42.234375 62.496094 42.234375 z M 92.044922 42.234375 C 89.099446 42.234375 88.0625 44.930568 88.0625 46.921875 C 88.0625 48.774897 89.084864 49.964844 91.076172 49.964844 C 92.140968 49.964844 93.053414 49.59236 93.855469 49.025391 L 93.177734 47.917969 C 92.513965 48.388139 91.9333 48.595703 91.269531 48.595703 C 90.467477 48.595703 89.887189 48.208158 89.845703 47.074219 C 92.251866 46.825305 94.574219 46.230372 94.574219 44.169922 C 94.574219 43.132783 93.718173 42.234375 92.044922 42.234375 z M 87.710938 42.248047 C 86.895055 42.248047 86.146734 42.788563 85.607422 43.867188 L 85.664062 42.441406 L 84.15625 42.441406 L 83.132812 49.757812 L 84.875 49.757812 L 85.386719 46.148438 C 85.84306 44.848556 86.395755 43.976562 87.322266 43.976562 C 87.557351 43.976562 87.710384 44.005233 87.931641 44.060547 L 88.443359 42.359375 C 88.208274 42.290232 87.987508 42.248047 87.710938 42.248047 z M 75.244141 42.441406 L 74.220703 49.757812 L 75.962891 49.757812 L 76.986328 42.441406 L 75.244141 42.441406 z M 234.46289 42.759766 L 232.99609 42.925781 L 232.54102 44.583984 L 231.33789 44.583984 L 231.1582 45.857422 L 232.29102 45.857422 L 231.75195 49.6875 C 231.5307 51.236295 232.23597 52.107422 233.64648 52.107422 C 234.24111 52.107422 234.90553 51.941573 235.48633 51.582031 L 234.98828 50.40625 C 234.64257 50.572192 234.36688 50.669922 234.04883 50.669922 C 233.57866 50.669922 233.38351 50.420255 233.49414 49.701172 L 234.0332 45.857422 L 235.52734 45.857422 L 235.90039 44.583984 L 234.21484 44.583984 L 234.46289 42.759766 z M 274.92188 42.759766 L 273.45703 42.925781 L 273 44.583984 L 271.79688 44.583984 L 271.61719 45.857422 L 272.75 45.857422 L 272.21094 49.6875 C 271.98968 51.236295 272.69496 52.107422 274.10547 52.107422 C 274.7001 52.107422 275.36451 51.941573 275.94531 51.582031 L 275.44727 50.40625 C 275.10155 50.572192 274.82587 50.669922 274.50781 50.669922 C 274.03764 50.669922 273.8425 50.420255 273.95312 49.701172 L 274.49414 45.857422 L 275.98633 45.857422 L 276.35938 44.583984 L 274.67383 44.583984 L 274.92188 42.759766 z M 62.400391 43.492188 C 63.050331 43.492188 63.228516 43.922178 63.228516 44.240234 C 63.228516 45.180574 62.34451 45.718667 60.380859 45.898438 C 60.574459 44.723013 61.141995 43.492188 62.400391 43.492188 z M 91.947266 43.492188 C 92.597206 43.492188 92.777344 43.922178 92.777344 44.240234 C 92.777344 45.180574 91.891385 45.718667 89.927734 45.898438 C 90.121334 44.723013 90.68887 43.492188 91.947266 43.492188 z M 46.65625 43.535156 C 47.057277 43.535156 47.320616 43.59023 47.638672 43.728516 L 47.113281 47.460938 C 46.615454 48.152364 46.116894 48.623047 45.453125 48.623047 C 44.84467 48.623047 44.443359 48.207844 44.443359 47.101562 C 44.443359 45.580425 45.038313 43.535156 46.65625 43.535156 z M 54.613281 43.535156 C 55.014308 43.535156 55.275381 43.59023 55.621094 43.728516 L 55.068359 47.240234 C 54.584361 47.904004 54.044629 48.416016 53.380859 48.416016 C 52.786233 48.416016 52.34375 48.028 52.34375 46.935547 C 52.34375 45.414409 52.967687 43.535156 54.613281 43.535156 z M 38.732422 43.5625 C 39.340877 43.5625 39.796875 43.922545 39.796875 45.070312 C 39.796875 46.563793 39.21692 48.636719 37.654297 48.636719 C 37.211784 48.636719 36.920088 48.567816 36.560547 48.443359 L 37.099609 44.501953 C 37.569779 43.962641 38.082481 43.5625 38.732422 43.5625 z M 606.46289 44.019531 C 603.48976 44.019531 602.52148 46.730022 602.52148 48.666016 C 602.52148 50.574352 603.57229 51.75 605.4668 51.75 C 608.45376 51.75 609.4082 48.99818 609.4082 47.089844 C 609.4082 45.209165 608.3574 44.019531 606.46289 44.019531 z M 615.4668 44.019531 C 614.44349 44.019531 613.59916 44.641692 612.94922 45.582031 L 613.01953 44.228516 L 611.51172 44.228516 L 610.48828 51.542969 L 612.23047 51.542969 L 612.82617 47.353516 C 613.36548 46.316376 614.02896 45.472656 614.74805 45.472656 C 615.17673 45.472656 615.45243 45.706928 615.3418 46.578125 L 614.63672 51.542969 L 616.37891 51.542969 L 617.11328 46.316406 C 617.32071 44.87824 616.65605 44.019531 615.4668 44.019531 z M 622.31641 44.019531 C 619.46773 44.019531 618.38867 46.757679 618.38867 48.666016 C 618.38867 50.574352 619.46713 51.75 621.33398 51.75 C 622.23284 51.75 623.02099 51.460874 623.75391 50.949219 L 623.08984 49.773438 C 622.52287 50.119151 622.09431 50.3125 621.52734 50.3125 C 620.72529 50.3125 620.22852 49.897611 620.22852 48.763672 C 620.22852 47.394648 620.67066 45.417969 622.33008 45.417969 C 622.84173 45.417969 623.24124 45.556161 623.66992 45.943359 L 624.55664 44.890625 C 623.94819 44.295998 623.1876 44.019531 622.31641 44.019531 z M 639.89453 44.019531 C 637.93088 44.019531 636.94922 45.125983 636.94922 46.246094 C 636.94922 47.297062 637.52988 47.891628 638.85742 48.320312 C 640.01902 48.707511 640.34961 48.901624 640.34961 49.482422 C 640.34961 49.924935 639.97612 50.423828 638.98047 50.423828 C 638.15076 50.423828 637.48822 50.104622 636.97656 49.662109 L 636.06445 50.617188 C 636.65908 51.239471 637.6534 51.75 638.93945 51.75 C 640.87545 51.75 642.12109 50.768715 642.12109 49.289062 C 642.12109 48.141295 641.44246 47.504699 640.14258 47.089844 C 639.07778 46.744131 638.70508 46.579545 638.70508 46.109375 C 638.70508 45.625377 639.13396 45.333984 639.89453 45.333984 C 640.50299 45.333984 641.11108 45.540536 641.65039 45.927734 L 642.45312 44.947266 C 641.80318 44.380296 640.9455 44.019531 639.89453 44.019531 z M 651 44.019531 C 648.02687 44.019531 647.05859 46.730022 647.05859 48.666016 C 647.05859 50.574352 648.1094 51.75 650.00391 51.75 C 652.99087 51.75 653.94531 48.99818 653.94531 47.089844 C 653.94531 45.209165 652.89451 44.019531 651 44.019531 z M 660.00391 44.019531 C 658.9806 44.019531 658.13822 44.641692 657.48828 45.582031 L 657.55664 44.228516 L 656.04883 44.228516 L 655.02539 51.542969 L 656.76953 51.542969 L 657.36328 47.353516 C 657.90259 46.316376 658.56607 45.472656 659.28516 45.472656 C 659.71384 45.472656 659.99149 45.706928 659.88086 46.578125 L 659.17383 51.542969 L 660.91797 51.542969 L 661.65039 46.316406 C 661.85782 44.87824 661.19316 44.019531 660.00391 44.019531 z M 712.11133 44.019531 C 709.16585 44.019531 708.12891 46.717677 708.12891 48.708984 C 708.12891 50.562007 709.15322 51.75 711.14453 51.75 C 712.20933 51.75 713.12177 51.377516 713.92383 50.810547 L 713.24609 49.703125 C 712.58232 50.173295 712.00166 50.380859 711.33789 50.380859 C 710.53584 50.380859 709.95359 49.993314 709.91211 48.859375 C 712.31827 48.610462 714.64258 48.017481 714.64258 45.957031 C 714.64258 44.919892 713.78458 44.019531 712.11133 44.019531 z M 718.56055 44.019531 C 716.5969 44.019531 715.61523 45.125983 715.61523 46.246094 C 715.61523 47.297062 716.1959 47.891628 717.52344 48.320312 C 718.68503 48.707511 719.01758 48.901624 719.01758 49.482422 C 719.01758 49.924935 718.64409 50.423828 717.64844 50.423828 C 716.81873 50.423828 716.15423 50.104622 715.64258 49.662109 L 714.73047 50.617188 C 715.3251 51.239471 716.32137 51.75 717.60742 51.75 C 719.54342 51.75 720.78711 50.768715 720.78711 49.289062 C 720.78711 48.141295 720.11043 47.504699 718.81055 47.089844 C 717.74575 46.744131 717.37109 46.579545 717.37109 46.109375 C 717.37109 45.625377 717.79998 45.333984 718.56055 45.333984 C 719.169 45.333984 719.77905 45.540536 720.31836 45.927734 L 721.11914 44.947266 C 720.4692 44.380296 719.61151 44.019531 718.56055 44.019531 z M 737.20312 44.019531 C 734.22999 44.019531 733.26172 46.730022 733.26172 48.666016 C 733.26172 50.574352 734.31252 51.75 736.20703 51.75 C 739.19399 51.75 740.14844 48.99818 740.14844 47.089844 C 740.14844 45.209165 739.09763 44.019531 737.20312 44.019531 z M 746.20703 44.019531 C 745.18372 44.019531 744.33939 44.641692 743.68945 45.582031 L 743.75977 44.228516 L 742.25195 44.228516 L 741.22852 51.542969 L 742.9707 51.542969 L 743.56641 47.353516 C 744.10572 46.316376 744.7692 45.472656 745.48828 45.472656 C 745.91697 45.472656 746.19266 45.706928 746.08203 46.578125 L 745.37695 51.542969 L 747.11914 51.542969 L 747.85352 46.316406 C 748.06094 44.87824 747.39628 44.019531 746.20703 44.019531 z M 760.1543 44.019531 C 758.19065 44.019531 757.20898 45.125983 757.20898 46.246094 C 757.20898 47.297062 757.78965 47.891628 759.11719 48.320312 C 760.27878 48.707511 760.61133 48.901624 760.61133 49.482422 C 760.61133 49.924935 760.23784 50.423828 759.24219 50.423828 C 758.41248 50.423828 757.74798 50.104622 757.23633 49.662109 L 756.32422 50.617188 C 756.91885 51.239471 757.91512 51.75 759.20117 51.75 C 761.13717 51.75 762.38086 50.768715 762.38086 49.289062 C 762.38086 48.141295 761.70418 47.504699 760.4043 47.089844 C 759.3395 46.744131 758.96484 46.579545 758.96484 46.109375 C 758.96484 45.625377 759.39373 45.333984 760.1543 45.333984 C 760.76275 45.333984 761.37084 45.540536 761.91016 45.927734 L 762.71289 44.947266 C 762.06295 44.380296 761.20526 44.019531 760.1543 44.019531 z M 629.83594 44.228516 L 629.10352 49.441406 C 628.89609 50.851916 629.51816 51.75 630.8457 51.75 C 631.8137 51.75 632.55904 51.197212 633.20898 50.339844 L 633.14062 51.542969 L 634.64844 51.542969 L 635.67188 44.228516 L 633.92969 44.228516 L 633.26562 48.929688 C 632.78163 49.648771 632.18572 50.339844 631.48047 50.339844 C 630.98264 50.339844 630.76242 50.078072 630.87305 49.220703 L 631.57812 44.228516 L 629.83594 44.228516 z M 644.24609 44.228516 L 643.22266 51.542969 L 644.96484 51.542969 L 645.98828 44.228516 L 644.24609 44.228516 z M 697.22852 44.228516 L 696.20508 51.542969 L 697.94727 51.542969 L 698.9707 44.228516 L 697.22852 44.228516 z M 750.0957 44.228516 L 749.36328 49.441406 C 749.15585 50.851916 749.77793 51.75 751.10547 51.75 C 752.07347 51.75 752.82076 51.197212 753.4707 50.339844 L 753.40234 51.542969 L 754.9082 51.542969 L 755.93164 44.228516 L 754.18945 44.228516 L 753.52539 48.929688 C 753.04139 49.648771 752.44744 50.339844 751.74219 50.339844 C 751.24436 50.339844 751.02218 50.078072 751.13281 49.220703 L 751.83984 44.228516 L 750.0957 44.228516 z M 228.375 44.376953 C 227.35169 44.376953 226.50736 44.999114 225.85742 45.939453 L 225.92773 44.583984 L 224.41992 44.583984 L 223.39648 51.900391 L 225.13867 51.900391 L 225.73242 47.710938 C 226.27173 46.673798 226.93717 45.830078 227.65625 45.830078 C 228.08493 45.830078 228.36063 46.06435 228.25 46.935547 L 227.54492 51.900391 L 229.28711 51.900391 L 230.01953 46.673828 C 230.22696 45.235662 229.56425 44.376953 228.375 44.376953 z M 245.27148 44.376953 C 242.29835 44.376953 241.33008 47.087444 241.33008 49.023438 C 241.33008 50.931774 242.38088 52.107422 244.27539 52.107422 C 247.26235 52.107422 248.2168 49.355602 248.2168 47.447266 C 248.2168 45.566586 247.16599 44.376953 245.27148 44.376953 z M 269.17383 44.376953 C 266.32515 44.376953 265.24609 47.115101 265.24609 49.023438 C 265.24609 50.931774 266.32456 52.107422 268.19141 52.107422 C 269.09026 52.107422 269.87842 51.816343 270.61133 51.304688 L 269.94727 50.130859 C 269.3803 50.476572 268.95174 50.669922 268.38477 50.669922 C 267.58271 50.669922 267.08594 50.255033 267.08594 49.121094 C 267.08594 47.75207 267.52808 45.773438 269.1875 45.773438 C 269.69916 45.773438 270.10061 45.911629 270.5293 46.298828 L 271.41406 45.248047 C 270.80561 44.65342 270.04503 44.376953 269.17383 44.376953 z M 284.62305 44.376953 C 281.64991 44.376953 280.68164 47.087444 280.68164 49.023438 C 280.68164 50.931774 281.73245 52.107422 283.62695 52.107422 C 286.61391 52.107422 287.56836 49.355602 287.56836 47.447266 C 287.56836 45.566586 286.51755 44.376953 284.62305 44.376953 z M 293.62891 44.376953 C 292.6056 44.376953 291.76127 44.999114 291.11133 45.939453 L 291.17969 44.583984 L 289.67383 44.583984 L 288.65039 51.900391 L 290.39258 51.900391 L 290.98633 47.710938 C 291.52564 46.673798 292.18912 45.830078 292.9082 45.830078 C 293.33689 45.830078 293.61453 46.06435 293.50391 46.935547 L 292.79883 51.900391 L 294.54102 51.900391 L 295.27344 46.673828 C 295.48087 45.235662 294.81816 44.376953 293.62891 44.376953 z M 240.96484 44.390625 C 240.14896 44.390625 239.40259 44.931141 238.86328 46.009766 L 238.91797 44.583984 L 237.41016 44.583984 L 236.38672 51.900391 L 238.13086 51.900391 L 238.64258 48.291016 C 239.09892 46.991134 239.65161 46.119141 240.57812 46.119141 C 240.81321 46.119141 240.96429 46.147811 241.18555 46.203125 L 241.69727 44.501953 C 241.46218 44.432811 241.24141 44.390625 240.96484 44.390625 z M 220.58398 44.583984 L 219.56055 51.900391 L 221.30273 51.900391 L 222.32617 44.583984 L 220.58398 44.583984 z M 258.35547 44.583984 L 257.62109 49.798828 C 257.41367 51.209338 258.03574 52.107422 259.36328 52.107422 C 260.33128 52.107422 261.07858 51.554634 261.72852 50.697266 L 261.66016 51.900391 L 263.16602 51.900391 L 264.18945 44.583984 L 262.44727 44.583984 L 261.7832 49.287109 C 261.2992 50.006193 260.70525 50.697266 260 50.697266 C 259.50217 50.697266 259.28195 50.43354 259.39258 49.576172 L 260.09766 44.583984 L 258.35547 44.583984 z M 277.86914 44.583984 L 276.84766 51.900391 L 278.58984 51.900391 L 279.61328 44.583984 L 277.86914 44.583984 z M 135.42969 45.017578 C 133.46604 45.017578 132.48437 46.12403 132.48438 47.244141 C 132.48438 48.295108 133.06504 48.889675 134.39258 49.318359 C 135.55417 49.705558 135.88477 49.897718 135.88477 50.478516 C 135.88477 50.921028 135.51128 51.419922 134.51562 51.419922 C 133.68591 51.419922 133.02337 51.100716 132.51172 50.658203 L 131.59766 51.613281 C 132.19228 52.235565 133.18856 52.748047 134.47461 52.748047 C 136.4106 52.748047 137.65625 51.764808 137.65625 50.285156 C 137.65625 49.137389 136.97762 48.500793 135.67773 48.085938 C 134.61294 47.740224 134.24023 47.575639 134.24023 47.105469 C 134.24023 46.62147 134.66912 46.330078 135.42969 46.330078 C 136.03814 46.330078 136.64623 46.538583 137.18555 46.925781 L 137.98633 45.943359 C 137.33639 45.37639 136.48066 45.017578 135.42969 45.017578 z M 142.69922 45.017578 C 139.72609 45.017578 138.75781 47.728069 138.75781 49.664062 C 138.75781 51.572399 139.80862 52.748047 141.70312 52.748047 C 144.69009 52.748047 145.64453 49.994274 145.64453 48.085938 C 145.64453 46.205258 144.59373 45.017578 142.69922 45.017578 z M 151.52344 45.017578 C 150.5831 45.017578 149.80978 45.597083 149.1875 46.509766 L 149.25586 45.224609 L 147.75 45.224609 L 146.72656 52.539062 L 148.46875 52.539062 L 149.04883 48.335938 C 149.54665 47.312627 150.14154 46.46875 150.75 46.46875 C 151.15103 46.46875 151.45453 46.663489 151.33008 47.576172 L 150.625 52.539062 L 152.36719 52.539062 L 152.97656 48.28125 C 153.47439 47.285596 154.06928 46.46875 154.67773 46.46875 C 155.07876 46.46875 155.38227 46.663489 155.25781 47.576172 L 154.55273 52.539062 L 156.29492 52.539062 L 157.04102 47.271484 C 157.23461 45.874804 156.57144 45.017578 155.4375 45.017578 C 154.5663 45.017578 153.75119 45.542552 153.12891 46.441406 C 152.99062 45.514895 152.35315 45.017578 151.52344 45.017578 z M 163.13867 45.017578 C 162.19833 45.017578 161.42306 45.597083 160.80078 46.509766 L 160.87109 45.224609 L 159.36328 45.224609 L 158.33984 52.539062 L 160.08203 52.539062 L 160.66211 48.335938 C 161.15994 47.312627 161.75483 46.46875 162.36328 46.46875 C 162.76431 46.46875 163.06977 46.663489 162.94531 47.576172 L 162.23828 52.539062 L 163.98242 52.539062 L 164.58984 48.28125 C 165.08767 47.285596 165.68256 46.46875 166.29102 46.46875 C 166.69204 46.46875 166.99555 46.663489 166.87109 47.576172 L 166.16602 52.539062 L 167.9082 52.539062 L 168.65625 47.271484 C 168.84985 45.874804 168.18472 45.017578 167.05078 45.017578 C 166.17958 45.017578 165.36447 45.542552 164.74219 46.441406 C 164.6039 45.514895 163.96838 45.017578 163.13867 45.017578 z M 173.99219 45.017578 C 171.00523 45.017578 169.92578 47.824316 169.92578 49.884766 C 169.92578 51.613331 170.75621 52.748047 172.27734 52.748047 C 173.20385 52.748047 173.92163 52.234865 174.46094 51.501953 C 174.62688 52.290179 175.19435 52.635779 175.96875 52.71875 L 176.4668 51.558594 C 176.05194 51.392651 176.01094 51.128686 176.08008 50.630859 L 176.78516 45.722656 C 175.8863 45.252486 174.96018 45.017578 173.99219 45.017578 z M 190.58594 45.017578 C 187.64046 45.017578 186.60352 47.713771 186.60352 49.705078 C 186.60352 51.5581 187.62783 52.748047 189.61914 52.748047 C 190.68394 52.748047 191.59638 52.37361 192.39844 51.806641 L 191.7207 50.701172 C 191.05693 51.171342 190.47627 51.378906 189.8125 51.378906 C 189.01045 51.378906 188.43016 50.991361 188.38867 49.857422 C 190.79483 49.608508 193.11719 49.013575 193.11719 46.953125 C 193.11719 45.915986 192.25919 45.017578 190.58594 45.017578 z M 186.25195 45.03125 C 185.43607 45.03125 184.6897 45.569813 184.15039 46.648438 L 184.20508 45.224609 L 182.69922 45.224609 L 181.67578 52.539062 L 183.41797 52.539062 L 183.92969 48.929688 C 184.38603 47.629806 184.93872 46.759766 185.86523 46.759766 C 186.10032 46.759766 186.25335 46.786483 186.47461 46.841797 L 186.98633 45.140625 C 186.75124 45.071482 186.52852 45.03125 186.25195 45.03125 z M 178.86328 45.224609 L 177.83984 52.539062 L 179.58203 52.539062 L 180.60547 45.224609 L 178.86328 45.224609 z M 712.01562 45.279297 C 712.66557 45.279297 712.84375 45.707335 712.84375 46.025391 C 712.84375 46.96573 711.95974 47.505776 709.99609 47.685547 C 710.18969 46.510122 710.75723 45.279297 712.01562 45.279297 z M 703.84375 45.347656 C 704.38306 45.347656 704.75616 45.59655 705.07422 46.039062 L 704.67188 48.916016 C 704.13256 49.773384 703.58072 50.408203 702.83398 50.408203 C 702.23936 50.408203 701.83789 49.99511 701.83789 48.875 C 701.83789 47.547462 702.28113 45.347656 703.84375 45.347656 z M 729.3457 45.347656 C 729.94033 45.347656 730.39844 45.707701 730.39844 46.855469 C 730.39844 48.348949 729.83036 50.423828 728.25391 50.423828 C 727.82522 50.423828 727.53532 50.352972 727.17578 50.228516 L 727.71484 46.289062 C 728.18501 45.763579 728.69576 45.347656 729.3457 45.347656 z M 606.36523 45.361328 C 607.18112 45.361328 607.60953 45.84489 607.5957 46.951172 C 607.5957 48.195739 607.20809 50.408203 605.5625 50.408203 C 604.74662 50.408203 604.31836 49.910969 604.31836 48.804688 C 604.31836 47.56012 604.71964 45.361328 606.36523 45.361328 z M 650.90234 45.361328 C 651.71823 45.361328 652.14664 45.84489 652.13281 46.951172 C 652.13281 48.195739 651.74716 50.408203 650.10156 50.408203 C 649.28568 50.408203 648.85547 49.910969 648.85547 48.804688 C 648.85547 47.56012 649.25675 45.361328 650.90234 45.361328 z M 737.10547 45.361328 C 737.92135 45.361328 738.34977 45.84489 738.33594 46.951172 C 738.33594 48.195739 737.94833 50.408203 736.30273 50.408203 C 735.48685 50.408203 735.05859 49.910969 735.05859 48.804688 C 735.05859 47.56012 735.45987 45.361328 737.10547 45.361328 z M 253.10156 45.705078 C 253.64087 45.705078 254.01398 45.953972 254.33203 46.396484 L 253.92969 49.273438 C 253.39038 50.130806 252.83854 50.765625 252.0918 50.765625 C 251.49717 50.765625 251.0957 50.350579 251.0957 49.230469 C 251.0957 47.90293 251.53894 45.705078 253.10156 45.705078 z M 245.17383 45.71875 C 245.98971 45.71875 246.41813 46.202312 246.4043 47.308594 C 246.4043 48.553161 246.01864 50.765625 244.37305 50.765625 C 243.55716 50.765625 243.12695 50.268391 243.12695 49.162109 C 243.12695 47.917542 243.52823 45.71875 245.17383 45.71875 z M 284.52734 45.71875 C 285.34323 45.71875 285.77164 46.202312 285.75781 47.308594 C 285.75781 48.553161 285.3702 50.765625 283.72461 50.765625 C 282.90873 50.765625 282.48047 50.268391 282.48047 49.162109 C 282.48047 47.917542 282.88175 45.71875 284.52734 45.71875 z M 190.49023 46.275391 C 191.14017 46.275391 191.32031 46.703428 191.32031 47.021484 C 191.32031 47.961824 190.43435 48.50187 188.4707 48.681641 C 188.6643 47.506216 189.23184 46.275391 190.49023 46.275391 z M 173.96289 46.316406 C 174.36392 46.316406 174.62726 46.37148 174.94531 46.509766 L 174.41992 50.244141 C 173.9221 50.935567 173.42353 51.40625 172.75977 51.40625 C 172.15131 51.40625 171.75195 50.991048 171.75195 49.884766 C 171.75195 48.363628 172.34495 46.316406 173.96289 46.316406 z M 142.60156 46.357422 C 143.41745 46.357422 143.84781 46.842937 143.83398 47.949219 C 143.83398 49.193786 143.44638 51.40625 141.80078 51.40625 C 140.9849 51.40625 140.55664 50.907063 140.55664 49.800781 C 140.55664 48.556214 140.95597 46.357422 142.60156 46.357422 z "
       transform="matrix(0.26458333,0,0,0.26458333,0,192)"
       id="flowRoot4648" />
    <path
       style="font-style:normal;font-variant:normal;font-weight:normal;font-stretch:normal;font-size:18.66666603px;line-height:1;font-family:'Fira Sans';-inkscape-font-specification:'Fira Sans, Normal';font-variant-ligatures:normal;font-variant-caps:normal;font-variant-numeric:normal;font-feature-settings:normal;text-align:start;letter-spacing:0px;word-spacing:0px;writing-mode:lr-tb;text-anchor:start;fill:#000000;fill-opacity:1;stroke:none;stroke-width:0.74081379"
       d="M 355.68945 358.37891 C 355.01186 358.37891 354.48633 358.89076 354.48633 359.56836 C 354.48633 360.10767 354.87397 360.52148 355.48242 360.52148 C 356.16002 360.52148 356.68555 360.01143 356.68555 359.34766 C 356.68555 358.79452 356.29791 358.37891 355.68945 358.37891 z M 328.72461 359.84375 L 327.38477 369.40039 L 329.19531 369.40039 L 329.66602 366.06836 L 330.78516 366.06836 C 333.86892 366.06836 334.94727 364.20153 334.94727 362.44531 C 334.94727 360.68909 333.64748 359.84375 331.49023 359.84375 L 328.72461 359.84375 z M 371.28711 360.09375 L 368.03711 361.94727 L 368.63281 363.25977 L 370.85938 362.00195 L 369.80664 369.40039 L 371.53516 369.40039 L 372.83594 360.09375 L 371.28711 360.09375 z M 351.38672 360.25977 L 349.91992 360.42578 L 349.46484 362.08398 L 348.26172 362.08398 L 348.08203 363.35742 L 349.21484 363.35742 L 348.67578 367.1875 C 348.45452 368.73629 349.1598 369.60742 350.57031 369.60742 C 351.16494 369.60742 351.82936 369.44157 352.41016 369.08203 L 351.91211 367.90625 C 351.5664 368.07219 351.28876 368.16992 350.9707 368.16992 C 350.50053 368.16992 350.30734 367.92026 350.41797 367.20117 L 350.95703 363.35742 L 352.45117 363.35742 L 352.82422 362.08398 L 351.13672 362.08398 L 351.38672 360.25977 z M 330.34375 361.18555 L 331.33984 361.18555 C 332.41847 361.18555 333.05273 361.54583 333.05273 362.5 C 333.05273 363.52331 332.61052 364.69922 330.78516 364.69922 L 329.85938 364.69922 L 330.34375 361.18555 z M 339.03711 361.87695 C 336.05015 361.87695 334.9707 364.68564 334.9707 366.74609 C 334.9707 368.47466 335.80113 369.60742 337.32227 369.60742 C 338.24878 369.60742 338.9685 369.09619 339.50781 368.36328 C 339.67375 369.15151 340.23927 369.49711 341.01367 369.58008 L 341.51172 368.41797 C 341.09686 368.25203 341.05586 367.99001 341.125 367.49219 L 341.83008 362.58203 C 340.93122 362.11186 340.00511 361.87695 339.03711 361.87695 z M 361.11523 361.87695 C 358.16976 361.87695 357.13281 364.57315 357.13281 366.56445 C 357.13281 368.41748 358.15518 369.60742 360.14648 369.60742 C 361.21128 369.60742 362.12373 369.23494 362.92578 368.66797 L 362.25 367.56055 C 361.58623 368.03072 361.00557 368.23828 360.3418 368.23828 C 359.53974 368.23828 358.9575 367.85074 358.91602 366.7168 C 361.32218 366.46788 363.64648 365.8749 363.64648 363.81445 C 363.64648 362.77731 362.78849 361.87695 361.11523 361.87695 z M 347.46289 361.89062 C 346.64701 361.89062 345.90064 362.43114 345.36133 363.50977 L 345.41602 362.08398 L 343.9082 362.08398 L 342.88672 369.40039 L 344.62891 369.40039 L 345.14062 365.79102 C 345.59697 364.49113 346.14966 363.61914 347.07617 363.61914 C 347.31126 363.61914 347.46234 363.64781 347.68359 363.70312 L 348.19531 362.00195 C 347.96023 361.93281 347.73946 361.89062 347.46289 361.89062 z M 354.33398 362.08398 L 353.31055 369.40039 L 355.05273 369.40039 L 356.07617 362.08398 L 354.33398 362.08398 z M 361.01758 363.13672 C 361.66752 363.13672 361.84766 363.56476 361.84766 363.88281 C 361.84766 364.82315 360.96365 365.3632 359 365.54297 C 359.1936 364.36754 359.75918 363.13672 361.01758 363.13672 z M 339.00977 363.17773 C 339.41079 363.17773 339.67413 363.23281 339.99219 363.37109 L 339.46484 367.10547 C 338.96702 367.79689 338.47041 368.26562 337.80664 368.26562 C 337.19819 368.26562 336.79688 367.85238 336.79688 366.74609 C 336.79688 365.22496 337.39183 363.17773 339.00977 363.17773 z "
       transform="matrix(0.26458333,0,0,0.26458333,0,192)"
       id="flowRoot4648-9-90" />
    <path
       style="font-style:normal;font-variant:normal;font-weight:normal;font-stretch:normal;font-size:18.66666603px;line-height:1;font-family:'Fira Sans';-inkscape-font-specification:'Fira Sans, Normal';font-variant-ligatures:normal;font-variant-caps:normal;font-variant-numeric:normal;font-feature-settings:normal;text-align:start;letter-spacing:0px;word-spacing:0px;writing-mode:lr-tb;text-anchor:start;fill:#000000;fill-opacity:1;stroke:none;stroke-width:0.74081379"
       d="M 448.72461 358.37891 C 448.04701 358.37891 447.52148 358.89076 447.52148 359.56836 C 447.52148 360.10767 447.90717 360.52148 448.51562 360.52148 C 449.19322 360.52148 449.71875 360.01143 449.71875 359.34766 C 449.71875 358.79452 449.33306 358.37891 448.72461 358.37891 z M 421.75977 359.84375 L 420.41797 369.40039 L 422.23047 369.40039 L 422.69922 366.06836 L 423.82031 366.06836 C 426.90407 366.06836 427.98242 364.20153 427.98242 362.44531 C 427.98242 360.68909 426.68264 359.84375 424.52539 359.84375 L 421.75977 359.84375 z M 464.16992 359.92773 C 462.91153 359.92773 461.90081 360.42474 461.00195 361.37891 L 462.01172 362.32031 C 462.66166 361.64271 463.20068 361.32422 463.93359 361.32422 C 464.62502 361.32422 465.0957 361.71224 465.0957 362.45898 C 465.0957 363.63441 464.46043 364.39388 460.36719 368.07227 L 460.20117 369.40039 L 465.91211 369.40039 L 466.29883 368.00391 L 462.38477 368.03125 C 466.2291 364.906 466.90625 363.68918 466.90625 362.33398 C 466.90625 360.95113 465.92614 359.92773 464.16992 359.92773 z M 444.41992 360.25977 L 442.95508 360.42578 L 442.49805 362.08398 L 441.29492 362.08398 L 441.11523 363.35742 L 442.25 363.35742 L 441.71094 367.1875 C 441.48968 368.73629 442.19496 369.60742 443.60547 369.60742 C 444.2001 369.60742 444.86256 369.44157 445.44336 369.08203 L 444.94531 367.90625 C 444.5996 368.07219 444.32392 368.16992 444.00586 368.16992 C 443.53569 368.16992 443.3425 367.92026 443.45312 367.20117 L 443.99219 363.35742 L 445.48438 363.35742 L 445.85938 362.08398 L 444.17188 362.08398 L 444.41992 360.25977 z M 423.37695 361.18555 L 424.37305 361.18555 C 425.45167 361.18555 426.08789 361.54583 426.08789 362.5 C 426.08789 363.52331 425.64568 364.69922 423.82031 364.69922 L 422.89258 364.69922 L 423.37695 361.18555 z M 432.07031 361.87695 C 429.08335 361.87695 428.00586 364.68564 428.00586 366.74609 C 428.00586 368.47466 428.83628 369.60742 430.35742 369.60742 C 431.28393 369.60742 432.0017 369.09619 432.54102 368.36328 C 432.70696 369.15151 433.27443 369.49711 434.04883 369.58008 L 434.54688 368.41797 C 434.13202 368.25203 434.09101 367.99001 434.16016 367.49219 L 434.86523 362.58203 C 433.96638 362.11186 433.03831 361.87695 432.07031 361.87695 z M 454.14844 361.87695 C 451.20296 361.87695 450.16602 364.57315 450.16602 366.56445 C 450.16602 368.41748 451.19033 369.60742 453.18164 369.60742 C 454.24644 369.60742 455.15888 369.23494 455.96094 368.66797 L 455.2832 367.56055 C 454.61943 368.03072 454.03877 368.23828 453.375 368.23828 C 452.57295 368.23828 451.99266 367.85074 451.95117 366.7168 C 454.35733 366.46788 456.67969 365.8749 456.67969 363.81445 C 456.67969 362.77731 455.82169 361.87695 454.14844 361.87695 z M 440.49805 361.89062 C 439.68216 361.89062 438.93384 362.43114 438.39453 363.50977 L 438.45117 362.08398 L 436.94336 362.08398 L 435.91992 369.40039 L 437.66211 369.40039 L 438.17383 365.79102 C 438.63017 364.49113 439.18286 363.61914 440.10938 363.61914 C 440.34446 363.61914 440.49749 363.64781 440.71875 363.70312 L 441.23047 362.00195 C 440.99538 361.93281 440.77462 361.89062 440.49805 361.89062 z M 447.36914 362.08398 L 446.3457 369.40039 L 448.08789 369.40039 L 449.11133 362.08398 L 447.36914 362.08398 z M 454.05273 363.13672 C 454.70267 363.13672 454.88281 363.56476 454.88281 363.88281 C 454.88281 364.82315 453.99685 365.3632 452.0332 365.54297 C 452.2268 364.36754 452.79434 363.13672 454.05273 363.13672 z M 432.04297 363.17773 C 432.444 363.17773 432.70733 363.23281 433.02539 363.37109 L 432.5 367.10547 C 432.00217 367.79689 431.50361 368.26562 430.83984 368.26562 C 430.23139 368.26562 429.83008 367.85238 429.83008 366.74609 C 429.83008 365.22496 430.42503 363.17773 432.04297 363.17773 z "
       transform="matrix(0.26458333,0,0,0.26458333,0,192)"
       id="flowRoot4648-9-90-6" />
    <path
       style="font-style:normal;font-variant:normal;font-weight:normal;font-stretch:normal;font-size:18.66666603px;line-height:1;font-family:'Fira Sans';-inkscape-font-specification:'Fira Sans, Normal';font-variant-ligatures:normal;font-variant-caps:normal;font-variant-numeric:normal;font-feature-settings:normal;text-align:start;letter-spacing:0px;word-spacing:0px;writing-mode:lr-tb;text-anchor:start;fill:#000000;fill-opacity:1;stroke:none;stroke-width:0.74081379"
       d="M 544.39453 358.37891 C 543.71693 358.37891 543.19141 358.89076 543.19141 359.56836 C 543.19141 360.10767 543.57904 360.52148 544.1875 360.52148 C 544.8651 360.52148 545.39062 360.01143 545.39062 359.34766 C 545.39062 358.79452 545.00299 358.37891 544.39453 358.37891 z M 517.42969 359.84375 L 516.08789 369.40039 L 517.90039 369.40039 L 518.36914 366.06836 L 519.49023 366.06836 C 522.574 366.06836 523.65234 364.20153 523.65234 362.44531 C 523.65234 360.68909 522.35256 359.84375 520.19531 359.84375 L 517.42969 359.84375 z M 559.85352 359.92773 C 558.73341 359.92773 557.76456 360.30177 556.82422 361.07617 L 557.62695 362.11328 C 558.27689 361.56014 558.8706 361.2832 559.60352 361.2832 C 560.3226 361.2832 560.75195 361.64271 560.75195 362.32031 C 560.75195 363.1362 560.24019 363.91016 559.03711 363.91016 L 558.55273 363.91016 L 558.17969 365.16797 L 558.94141 365.16797 C 559.85409 365.16797 560.39258 365.44584 560.39258 366.26172 C 560.39258 367.45097 559.60433 368.22461 558.49805 368.22461 C 557.79279 368.22461 557.22619 367.97596 556.74219 367.33984 L 555.63477 368.23828 C 556.22939 369.10948 557.18481 369.60742 558.45703 369.60742 C 561.07062 369.60742 562.16211 367.78129 562.16211 366.39844 C 562.16211 365.20918 561.37456 364.57321 560.37891 364.49023 C 561.88622 364.08921 562.49414 363.15011 562.49414 362.14062 C 562.49414 360.90989 561.59591 359.92773 559.85352 359.92773 z M 540.08984 360.25977 L 538.625 360.42578 L 538.16797 362.08398 L 536.96484 362.08398 L 536.78516 363.35742 L 537.91992 363.35742 L 537.38086 367.1875 C 537.1596 368.73629 537.86488 369.60742 539.27539 369.60742 C 539.87002 369.60742 540.53248 369.44157 541.11328 369.08203 L 540.61719 367.90625 C 540.27147 368.07219 539.99384 368.16992 539.67578 368.16992 C 539.20561 368.16992 539.01242 367.92026 539.12305 367.20117 L 539.66211 363.35742 L 541.15625 363.35742 L 541.5293 362.08398 L 539.8418 362.08398 L 540.08984 360.25977 z M 519.04688 361.18555 L 520.04297 361.18555 C 521.12159 361.18555 521.75781 361.54583 521.75781 362.5 C 521.75781 363.52331 521.3156 364.69922 519.49023 364.69922 L 518.56445 364.69922 L 519.04688 361.18555 z M 527.74219 361.87695 C 524.75523 361.87695 523.67578 364.68564 523.67578 366.74609 C 523.67578 368.47466 524.50621 369.60742 526.02734 369.60742 C 526.95385 369.60742 527.67163 369.09619 528.21094 368.36328 C 528.37688 369.15151 528.94435 369.49711 529.71875 369.58008 L 530.2168 368.41797 C 529.80194 368.25203 529.76094 367.99001 529.83008 367.49219 L 530.53516 362.58203 C 529.6363 362.11186 528.71018 361.87695 527.74219 361.87695 z M 549.82031 361.87695 C 546.87484 361.87695 545.83789 364.57315 545.83789 366.56445 C 545.83789 368.41748 546.86026 369.60742 548.85156 369.60742 C 549.91636 369.60742 550.82881 369.23494 551.63086 368.66797 L 550.95312 367.56055 C 550.28936 368.03072 549.70869 368.23828 549.04492 368.23828 C 548.24287 368.23828 547.66258 367.85074 547.62109 366.7168 C 550.02726 366.46788 552.34961 365.8749 552.34961 363.81445 C 552.34961 362.77731 551.49356 361.87695 549.82031 361.87695 z M 536.16797 361.89062 C 535.35209 361.89062 534.60572 362.43114 534.06641 363.50977 L 534.12109 362.08398 L 532.61328 362.08398 L 531.58984 369.40039 L 533.33203 369.40039 L 533.84375 365.79102 C 534.30009 364.49113 534.85279 363.61914 535.7793 363.61914 C 536.01438 363.61914 536.16742 363.64781 536.38867 363.70312 L 536.90039 362.00195 C 536.66531 361.93281 536.44454 361.89062 536.16797 361.89062 z M 543.03906 362.08398 L 542.01562 369.40039 L 543.75781 369.40039 L 544.78125 362.08398 L 543.03906 362.08398 z M 549.72266 363.13672 C 550.3726 363.13672 550.55273 363.56476 550.55273 363.88281 C 550.55273 364.82315 549.66678 365.3632 547.70312 365.54297 C 547.89672 364.36754 548.46426 363.13672 549.72266 363.13672 z M 527.71289 363.17773 C 528.11392 363.17773 528.37726 363.23281 528.69531 363.37109 L 528.16992 367.10547 C 527.6721 367.79689 527.17549 368.26562 526.51172 368.26562 C 525.90326 368.26562 525.50195 367.85238 525.50195 366.74609 C 525.50195 365.22496 526.09495 363.17773 527.71289 363.17773 z "
       transform="matrix(0.26458333,0,0,0.26458333,0,192)"
       id="flowRoot4648-9-90-4" />
    <path
       style="color:#000000;font-style:normal;font-variant:normal;font-weight:normal;font-stretch:normal;font-size:medium;line-height:normal;font-family:sans-serif;font-variant-ligatures:normal;font-variant-position:normal;font-variant-caps:normal;font-variant-numeric:normal;font-variant-alternates:normal;font-feature-settings:normal;text-indent:0;text-align:start;text-decoration:none;text-decoration-line:none;text-decoration-style:solid;text-decoration-color:#000000;letter-spacing:normal;word-spacing:normal;text-transform:none;writing-mode:lr-tb;direction:ltr;text-orientation:mixed;dominant-baseline:auto;baseline-shift:baseline;text-anchor:start;white-space:normal;shape-padding:0;clip-rule:nonzero;display:inline;overflow:visible;visibility:visible;opacity:1;isolation:auto;mix-blend-mode:normal;color-interpolation:sRGB;color-interpolation-filters:linearRGB;solid-color:#000000;solid-opacity:1;vector-effect:none;fill:#000000;fill-opacity:1;fill-rule:nonzero;stroke:none;stroke-width:1;stroke-linecap:butt;stroke-linejoin:miter;stroke-miterlimit:4;stroke-dasharray:none;stroke-dashoffset:0;stroke-opacity:1;color-rendering:auto;image-rendering:auto;shape-rendering:auto;text-rendering:auto;enable-background:accumulate"
       d="m 92.699671,262.33679 -2.625164,2.62465 0.707451,0.70693 1.370975,-1.37098 v 21.55231 h 0.99994 v -21.64584 l 1.332217,1.3317 0.706935,-0.70693 z"
       id="path5013"
       inkscape:connector-curvature="0"
       sodipodi:nodetypes="cccccccccc" />
    <path
       style="color:#000000;font-style:normal;font-variant:normal;font-weight:normal;font-stretch:normal;font-size:medium;line-height:normal;font-family:sans-serif;font-variant-ligatures:normal;font-variant-position:normal;font-variant-caps:normal;font-variant-numeric:normal;font-variant-alternates:normal;font-feature-settings:normal;text-indent:0;text-align:start;text-decoration:none;text-decoration-line:none;text-decoration-style:solid;text-decoration-color:#000000;letter-spacing:normal;word-spacing:normal;text-transform:none;writing-mode:lr-tb;direction:ltr;text-orientation:mixed;dominant-baseline:auto;baseline-shift:baseline;text-anchor:start;white-space:normal;shape-padding:0;clip-rule:nonzero;display:inline;overflow:visible;visibility:visible;opacity:1;isolation:auto;mix-blend-mode:normal;color-interpolation:sRGB;color-interpolation-filters:linearRGB;solid-color:#000000;solid-opacity:1;vector-effect:none;fill:#000000;fill-opacity:1;fill-rule:nonzero;stroke:none;stroke-width:1;stroke-linecap:butt;stroke-linejoin:miter;stroke-miterlimit:4;stroke-dasharray:none;stroke-dashoffset:0;stroke-opacity:1;color-rendering:auto;image-rendering:auto;shape-rendering:auto;text-rendering:auto;enable-background:accumulate"
       d="m 117.45215,247.72899 -2.62516,2.62465 0.70745,0.70693 1.37098,-1.37098 v 36.16011 h 0.99994 v -36.25364 l 1.33221,1.3317 0.70694,-0.70693 z"
       id="path5013-7"
       inkscape:connector-curvature="0"
       sodipodi:nodetypes="cccccccccc" />
    <path
       style="color:#000000;font-style:normal;font-variant:normal;font-weight:normal;font-stretch:normal;font-size:medium;line-height:normal;font-family:sans-serif;font-variant-ligatures:normal;font-variant-position:normal;font-variant-caps:normal;font-variant-numeric:normal;font-variant-alternates:normal;font-feature-settings:normal;text-indent:0;text-align:start;text-decoration:none;text-decoration-line:none;text-decoration-style:solid;text-decoration-color:#000000;letter-spacing:normal;word-spacing:normal;text-transform:none;writing-mode:lr-tb;direction:ltr;text-orientation:mixed;dominant-baseline:auto;baseline-shift:baseline;text-anchor:start;white-space:normal;shape-padding:0;clip-rule:nonzero;display:inline;overflow:visible;visibility:visible;opacity:1;isolation:auto;mix-blend-mode:normal;color-interpolation:sRGB;color-interpolation-filters:linearRGB;solid-color:#000000;solid-opacity:1;vector-effect:none;fill:#000000;fill-opacity:1;fill-rule:nonzero;stroke:none;stroke-width:1;stroke-linecap:butt;stroke-linejoin:miter;stroke-miterlimit:4;stroke-dasharray:none;stroke-dashoffset:0;stroke-opacity:1;color-rendering:auto;image-rendering:auto;shape-rendering:auto;text-rendering:auto;enable-background:accumulate"
       d="m 143.06116,277.11664 -2.62517,2.62465 0.70745,0.70693 1.37098,-1.37098 v 6.77246 h 0.99994 v -6.86599 l 1.33222,1.3317 0.70693,-0.70693 z"
       id="path5013-3"
       inkscape:connector-curvature="0"
       sodipodi:nodetypes="cccccccccc" />
    <path
       style="font-style:normal;font-variant:normal;font-weight:normal;font-stretch:normal;font-size:18.66666603px;line-height:1;font-family:'Fira Sans';-inkscape-font-specification:'Fira Sans, Normal';font-variant-ligatures:normal;font-variant-caps:normal;font-variant-numeric:normal;font-feature-settings:normal;text-align:start;letter-spacing:0px;word-spacing:0px;writing-mode:lr-tb;text-anchor:start;fill:#000000;fill-opacity:1;stroke:none;stroke-width:0.84019268"
       d="M 110.08008 290.70703 L 107.60742 291.00391 L 107.60742 308.07617 C 107.60742 310.09263 108.76308 311.19531 110.56445 311.19531 C 111.29038 311.19531 111.98962 311.00669 112.52734 310.71094 L 111.88281 308.99023 C 111.61395 309.09778 111.31827 309.15234 110.96875 309.15234 C 110.32348 309.15234 110.08008 308.7743 110.08008 308.02148 L 110.08008 290.70703 z M 145.75 290.70703 L 145.75 298.12891 C 144.80898 297.13412 143.59858 296.38086 141.93164 296.38086 C 138.46333 296.38086 136.36719 299.5268 136.36719 303.85547 C 136.36719 308.2648 138.27537 311.19531 141.7168 311.19531 C 143.4644 311.19531 144.8886 310.33512 145.80273 308.91016 L 146.04492 310.87305 L 148.22266 310.87305 L 148.22266 291.00391 L 145.75 290.70703 z M 27.060547 292.34766 L 27.060547 310.87305 L 37.304688 310.87305 L 37.304688 308.82812 L 29.615234 308.82812 L 29.615234 302.48438 L 35.851562 302.48438 L 35.851562 300.44141 L 29.615234 300.44141 L 29.615234 294.39062 L 36.792969 294.39062 L 37.087891 292.34766 L 27.060547 292.34766 z M 58.941406 296.38086 C 55.284888 296.38086 53.052734 299.52622 53.052734 303.93555 C 53.052734 308.42554 55.36414 311.19531 59.316406 311.19531 C 61.279096 311.19531 62.865591 310.52225 64.263672 309.41992 L 63.189453 307.94141 C 61.952689 308.80176 60.90394 309.17773 59.505859 309.17773 C 57.462511 309.17773 55.929475 307.91488 55.6875 304.63477 L 64.720703 304.63477 C 64.747589 304.31213 64.775391 303.85504 64.775391 303.37109 C 64.775391 299.04242 62.759242 296.38086 58.941406 296.38086 z M 75.150391 296.38086 C 73.295245 296.38086 72.005469 297.34847 71.064453 298.77344 L 70.849609 296.70312 L 68.724609 296.70312 L 68.724609 310.87305 L 71.199219 310.87305 L 71.199219 300.81641 C 72.140235 299.31078 73.000692 298.31641 74.533203 298.31641 C 75.60865 298.31641 76.521484 298.93459 76.521484 301.05859 L 76.521484 310.87305 L 78.996094 310.87305 L 78.996094 300.81641 C 79.963996 299.31078 80.797567 298.31641 82.330078 298.31641 C 83.405525 298.31641 84.318359 298.93459 84.318359 301.05859 L 84.318359 310.87305 L 86.792969 310.87305 L 86.792969 300.70898 C 86.792969 298.04725 85.259476 296.38086 82.947266 296.38086 C 81.038348 296.38086 79.748237 297.40304 78.726562 298.93555 C 78.188839 297.32238 76.897991 296.38086 75.150391 296.38086 z M 98.285156 296.38086 C 96.671986 296.38086 95.138404 297.15948 94.089844 298.61133 L 93.902344 296.70312 L 91.777344 296.70312 L 91.777344 316.59961 L 94.251953 316.30273 L 94.251953 309.58203 C 95.166083 310.68436 96.428426 311.19531 97.960938 311.19531 C 101.61746 311.19531 103.52734 308.07522 103.52734 303.77344 C 103.52734 299.31033 102.04922 296.38086 98.285156 296.38086 z M 120.32812 296.38086 C 116.67161 296.38086 114.43945 299.52622 114.43945 303.93555 C 114.43945 308.42554 116.75086 311.19531 120.70312 311.19531 C 122.66582 311.19531 124.25231 310.52225 125.65039 309.41992 L 124.57617 307.94141 C 123.33941 308.80176 122.29066 309.17773 120.89258 309.17773 C 118.84923 309.17773 117.31619 307.91488 117.07422 304.63477 L 126.10742 304.63477 C 126.13431 304.31213 126.16211 303.85504 126.16211 303.37109 C 126.16211 299.04242 124.14596 296.38086 120.32812 296.38086 z M 158.18945 296.38086 C 154.53293 296.38086 152.30078 299.52622 152.30078 303.93555 C 152.30078 308.42554 154.61219 311.19531 158.56445 311.19531 C 160.52714 311.19531 162.11364 310.52225 163.51172 309.41992 L 162.4375 307.94141 C 161.20074 308.80176 160.15199 309.17773 158.75391 309.17773 C 156.71056 309.17773 155.17752 307.91488 154.93555 304.63477 L 163.96875 304.63477 C 163.99564 304.31213 164.02344 303.85504 164.02344 303.37109 C 164.02344 299.04242 162.00729 296.38086 158.18945 296.38086 z M 39.458984 296.70312 L 43.841797 303.39844 L 38.894531 310.87305 L 41.689453 310.87305 L 45.212891 304.87695 L 48.681641 310.87305 L 51.666016 310.87305 L 46.744141 303.29102 L 51.099609 296.70312 L 48.304688 296.70312 L 45.320312 301.89258 L 42.363281 296.70312 L 39.458984 296.70312 z M 58.994141 298.34375 C 61.225692 298.34375 62.328125 299.87526 62.328125 302.64453 L 62.328125 302.80664 L 55.6875 302.80664 C 55.875703 299.66096 57.112109 298.34375 58.994141 298.34375 z M 97.666016 298.34375 C 99.790023 298.34375 100.86523 300.09003 100.86523 303.77344 C 100.86523 307.48373 99.629532 309.17773 97.371094 309.17773 C 96.080558 309.17773 94.97788 308.55936 94.251953 307.45703 L 94.251953 300.54883 C 95.004766 299.41961 96.16039 298.34375 97.666016 298.34375 z M 120.38086 298.34375 C 122.61241 298.34375 123.71484 299.87526 123.71484 302.64453 L 123.71484 302.80664 L 117.07422 302.80664 C 117.26242 299.66096 118.49883 298.34375 120.38086 298.34375 z M 142.46875 298.34375 C 143.86683 298.34375 144.86276 299.07 145.75 300.19922 L 145.75 307.13477 C 144.80898 308.45219 143.84019 309.23242 142.25391 309.23242 C 140.21056 309.23242 139.02734 307.53796 139.02734 303.80078 C 139.02734 300.11738 140.34474 298.34375 142.46875 298.34375 z M 158.24219 298.34375 C 160.47374 298.34375 161.57617 299.87526 161.57617 302.64453 L 161.57617 302.80664 L 154.93555 302.80664 C 155.12375 299.66096 156.36016 298.34375 158.24219 298.34375 z M 148.49414 316.78711 C 147.47247 316.78711 146.77148 317.51257 146.77148 318.48047 C 146.77148 319.42148 147.47247 320.14844 148.49414 320.14844 C 149.5427 320.14844 150.24023 319.42148 150.24023 318.48047 C 150.24023 317.51257 149.5427 316.78711 148.49414 316.78711 z M 201.9375 317.59375 L 201.9375 325.01367 C 200.99648 324.01888 199.78608 323.26758 198.11914 323.26758 C 194.65083 323.26758 192.55469 326.41156 192.55469 330.74023 C 192.55469 335.14957 194.46287 338.08203 197.9043 338.08203 C 199.6519 338.08203 201.0761 337.21989 201.99023 335.79492 L 202.23242 337.75781 L 204.41016 337.75781 L 204.41016 317.88867 L 201.9375 317.59375 z M 208.56836 319.23438 L 208.97266 326.27734 L 210.82812 326.27734 L 211.23047 319.23438 L 208.56836 319.23438 z M 42.111328 320.09375 L 39.636719 320.39062 L 39.636719 323.58984 L 37.164062 323.58984 L 37.164062 325.49805 L 39.636719 325.49805 L 39.636719 334.04883 C 39.636719 336.68367 41.062209 338.08203 43.455078 338.08203 C 44.664956 338.08203 45.685937 337.75855 46.626953 337.11328 L 45.6875 335.47266 C 44.98846 335.84906 44.423069 336.03711 43.804688 336.03711 C 42.567924 336.03711 42.111328 335.36637 42.111328 333.94141 L 42.111328 325.49805 L 45.203125 325.49805 L 45.472656 323.58984 L 42.111328 323.58984 L 42.111328 320.09375 z M 90.736328 320.09375 L 88.263672 320.39062 L 88.263672 323.58984 L 85.789062 323.58984 L 85.789062 325.49805 L 88.263672 325.49805 L 88.263672 334.04883 C 88.263672 336.68367 89.689162 338.08203 92.082031 338.08203 C 93.291909 338.08203 94.31289 337.75855 95.253906 337.11328 L 94.3125 335.47266 C 93.61346 335.84906 93.050022 336.03711 92.431641 336.03711 C 91.194877 336.03711 90.736328 335.36637 90.736328 333.94141 L 90.736328 325.49805 L 93.828125 325.49805 L 94.097656 323.58984 L 90.736328 323.58984 L 90.736328 320.09375 z M 140.20312 320.09375 L 137.73047 320.39062 L 137.73047 323.58984 L 135.25586 323.58984 L 135.25586 325.49805 L 137.73047 325.49805 L 137.73047 334.04883 C 137.73047 336.68367 139.15401 338.08203 141.54688 338.08203 C 142.75675 338.08203 143.77969 337.75855 144.7207 337.11328 L 143.7793 335.47266 C 143.08026 335.84906 142.51487 336.03711 141.89648 336.03711 C 140.65972 336.03711 140.20312 335.36637 140.20312 333.94141 L 140.20312 325.49805 L 143.29492 325.49805 L 143.56445 323.58984 L 140.20312 323.58984 L 140.20312 320.09375 z M 30.769531 323.26758 C 27.838939 323.26758 25.662109 324.90758 25.662109 327.16602 C 25.662109 329.15559 26.872477 330.47271 29.9375 331.2793 C 32.679889 332.00522 33.378906 332.54333 33.378906 333.94141 C 33.378906 335.28571 32.194989 336.0918 30.339844 336.0918 C 28.807332 336.0918 27.490547 335.58106 26.361328 334.7207 L 25.042969 336.22656 C 26.279732 337.30201 28.001662 338.08203 30.394531 338.08203 C 33.271351 338.08203 35.986328 336.73678 35.986328 333.7793 C 35.986328 331.30577 34.265614 330.12195 31.28125 329.36914 C 28.995926 328.77764 28.242188 328.24009 28.242188 327.08398 C 28.242188 325.95477 29.238393 325.22852 30.851562 325.22852 C 32.168985 325.22852 33.271506 325.63287 34.535156 326.43945 L 35.583984 324.88086 C 34.239676 323.85919 32.759108 323.26758 30.769531 323.26758 z M 55.347656 323.26758 C 53.626942 323.26758 52.309453 324.34279 51.556641 326.4668 L 51.314453 323.58984 L 49.191406 323.58984 L 49.191406 337.75781 L 51.664062 337.75781 L 51.664062 329.66602 C 52.255558 326.95051 53.278247 325.6875 55.052734 325.6875 C 55.563572 325.6875 55.858884 325.74011 56.289062 325.84766 L 56.746094 323.42773 C 56.315915 323.32019 55.804721 323.26758 55.347656 323.26758 z M 80.398438 323.26758 C 76.553716 323.26758 74.214844 326.27805 74.214844 330.79492 C 74.214844 335.36557 76.580602 338.08203 80.398438 338.08203 C 82.038494 338.08203 83.464866 337.54316 84.728516 336.52148 L 83.597656 334.9082 C 82.52221 335.60724 81.688851 335.98437 80.505859 335.98438 C 78.274308 335.98438 76.876953 334.45053 76.876953 330.74023 C 76.876953 327.05683 78.274308 325.31055 80.505859 325.31055 C 81.688851 325.31055 82.57702 325.66033 83.544922 326.35938 L 84.728516 324.79883 C 83.411094 323.6965 82.06538 323.26758 80.398438 323.26758 z M 119.62305 323.26758 C 117.90233 323.26758 116.58484 324.34279 115.83203 326.4668 L 115.58984 323.58984 L 113.46484 323.58984 L 113.46484 337.75781 L 115.93945 337.75781 L 115.93945 329.66602 C 116.53095 326.95051 117.55168 325.6875 119.32617 325.6875 C 119.83701 325.6875 120.13427 325.74011 120.56445 325.84766 L 121.02148 323.42773 C 120.59131 323.32019 120.08011 323.26758 119.62305 323.26758 z M 127.48828 323.26758 C 125.902 323.26758 124.3433 323.58911 122.5957 324.23438 L 123.21289 326.03516 C 124.66474 325.55121 125.98269 325.2832 127.03125 325.2832 C 128.99394 325.2832 129.98828 326.03673 129.98828 328.08008 L 129.98828 329.12891 L 127.81055 329.12891 C 123.85828 329.12891 121.57422 330.7685 121.57422 333.80664 C 121.57422 336.33394 123.2668 338.08203 126.08984 338.08203 C 127.81056 338.08203 129.31576 337.43577 130.31055 335.95703 C 130.74073 337.35511 131.65511 337.92071 133.08008 338.08203 L 133.64453 336.36133 C 132.9186 336.09247 132.46289 335.68794 132.46289 334.45117 L 132.46289 327.97266 C 132.46289 325.01518 130.90282 323.26758 127.48828 323.26758 z M 160.16797 323.26758 C 156.13504 323.26758 153.82422 326.30505 153.82422 330.6875 C 153.82422 335.17749 156.10965 338.08203 160.14258 338.08203 C 164.14862 338.08203 166.45898 335.0426 166.45898 330.66016 C 166.45898 326.17017 164.20089 323.26758 160.16797 323.26758 z M 177.21484 323.26758 C 175.3597 323.26758 173.85267 324.23565 172.88477 325.6875 L 172.66992 323.58984 L 170.54688 323.58984 L 170.54688 337.75781 L 173.01953 337.75781 L 173.01953 327.70312 C 173.96055 326.1975 175.03676 325.20312 176.62305 325.20312 C 177.99424 325.20312 178.85352 325.82131 178.85352 327.94531 L 178.85352 337.75781 L 181.32812 337.75781 L 181.32812 327.5957 C 181.32812 324.90709 179.8228 323.26758 177.21484 323.26758 z M 237.70703 323.26758 C 235.85189 323.26758 234.34681 324.23565 233.37891 325.6875 L 233.16406 323.58984 L 231.03906 323.58984 L 231.03906 337.75781 L 233.51367 337.75781 L 233.51367 327.70312 C 234.45469 326.1975 235.5309 325.20312 237.11719 325.20312 C 238.48838 325.20312 239.34766 325.82131 239.34766 327.94531 L 239.34766 337.75781 L 241.82227 337.75781 L 241.82227 327.5957 C 241.82227 324.90709 240.31499 323.26758 237.70703 323.26758 z M 251.66016 323.26758 C 248.00364 323.26758 245.77148 326.41293 245.77148 330.82227 C 245.77148 335.31226 248.08484 338.08203 252.03711 338.08203 C 253.9998 338.08203 255.58629 337.40897 256.98438 336.30664 L 255.9082 334.82812 C 254.67144 335.68848 253.62269 336.06445 252.22461 336.06445 C 250.18126 336.06445 248.64823 334.8016 248.40625 331.52148 L 257.44141 331.52148 C 257.46829 331.19885 257.49414 330.74176 257.49414 330.25781 C 257.49414 325.92914 255.47799 323.26758 251.66016 323.26758 z M 59.453125 323.58984 L 59.453125 333.75195 C 59.453125 336.52123 60.932723 338.08203 63.40625 338.08203 C 65.422712 338.08203 66.739006 337.2754 67.814453 335.55469 L 68.003906 337.75781 L 70.126953 337.75781 L 70.126953 323.58984 L 67.654297 323.58984 L 67.654297 333.69922 C 66.79394 335.12419 65.63798 336.14453 64.105469 336.14453 C 62.572957 336.14453 61.927734 335.42018 61.927734 333.48438 L 61.927734 323.58984 L 59.453125 323.58984 z M 97.681641 323.58984 L 97.681641 333.75195 C 97.681641 336.52123 99.161238 338.08203 101.63477 338.08203 C 103.65123 338.08203 104.96948 337.2754 106.04492 335.55469 L 106.23242 337.75781 L 108.35547 337.75781 L 108.35547 323.58984 L 105.88281 323.58984 L 105.88281 333.69922 C 105.02246 335.12419 103.8665 336.14453 102.33398 336.14453 C 100.80147 336.14453 100.15625 335.42018 100.15625 333.48438 L 100.15625 323.58984 L 97.681641 323.58984 z M 147.2832 323.58984 L 147.2832 337.75781 L 149.75586 337.75781 L 149.75586 323.58984 L 147.2832 323.58984 z M 215.25781 323.58984 L 215.25781 333.75195 C 215.25781 336.52123 216.73546 338.08203 219.20898 338.08203 C 221.22545 338.08203 222.54369 337.2754 223.61914 335.55469 L 223.80664 337.75781 L 225.93164 337.75781 L 225.93164 323.58984 L 223.45703 323.58984 L 223.45703 333.69922 C 222.59667 335.12419 221.44071 336.14453 219.9082 336.14453 C 218.37569 336.14453 217.73047 335.42018 217.73047 333.48438 L 217.73047 323.58984 L 215.25781 323.58984 z M 198.6582 325.22852 C 200.05628 325.22852 201.05026 325.95477 201.9375 327.08398 L 201.9375 334.02148 C 200.99648 335.33891 200.02769 336.11914 198.44141 336.11914 C 196.39806 336.11914 195.2168 334.42468 195.2168 330.6875 C 195.2168 327.0041 196.5342 325.22852 198.6582 325.22852 z M 251.71289 325.22852 C 253.94444 325.22852 255.04688 326.76197 255.04688 329.53125 L 255.04688 329.69336 L 248.40625 329.69336 C 248.59445 326.54768 249.83086 325.22852 251.71289 325.22852 z M 160.16797 325.25586 C 162.50707 325.25586 163.79883 326.97675 163.79883 330.66016 C 163.79883 334.37045 162.50856 336.0918 160.14258 336.0918 C 157.7766 336.0918 156.48438 334.3709 156.48438 330.6875 C 156.48438 326.97721 157.80199 325.25586 160.16797 325.25586 z M 128.13281 330.76758 L 129.98828 330.76758 L 129.98828 334.02148 C 129.1817 335.50022 128.10615 336.22656 126.6543 336.22656 C 125.04113 336.22656 124.20898 335.33882 124.20898 333.67188 C 124.20898 331.73607 125.52485 330.76758 128.13281 330.76758 z M 59.570312 343.10938 L 54.220703 346.17383 L 54.972656 347.49219 L 60.671875 345.17969 L 59.570312 343.10938 z M 145.18555 343.67383 C 144.16387 343.67383 143.46484 344.39929 143.46484 345.36719 C 143.46484 346.3082 144.16387 347.0332 145.18555 347.0332 C 146.23411 347.0332 146.93164 346.3082 146.93164 345.36719 C 146.93164 344.39929 146.23411 343.67383 145.18555 343.67383 z M 264.78125 344.48047 L 262.30859 344.77539 L 262.30859 361.84766 C 262.30859 363.86412 263.46425 364.9668 265.26562 364.9668 C 265.99155 364.9668 266.69079 364.77817 267.22852 364.48242 L 266.58203 362.76172 C 266.31317 362.86926 266.01749 362.92383 265.66797 362.92383 C 265.0227 362.92383 264.78125 362.54773 264.78125 361.79492 L 264.78125 344.48047 z M 283.2168 345.79688 C 279.80225 345.79688 277.38086 347.78679 277.38086 350.63672 C 277.38086 353.51354 279.26444 354.884 282.86719 355.98633 C 286.01287 356.95423 286.87305 357.76113 286.87305 359.5625 C 286.87305 361.79405 285.07036 362.87109 282.89258 362.87109 C 280.87612 362.87109 279.42542 362.14484 278.02734 361.01562 L 276.62891 362.57422 C 278.16142 364.07984 280.25819 364.9668 282.91992 364.9668 C 287.08728 364.9668 289.53516 362.70876 289.53516 359.48242 C 289.53516 355.93345 287.00631 354.77741 284.04883 353.86328 C 280.71494 352.84161 279.99023 352.08869 279.99023 350.5293 C 279.99023 348.75481 281.46907 347.89453 283.32422 347.89453 C 284.85673 347.89453 286.14684 348.37859 287.54492 349.50781 L 288.94336 347.94922 C 287.38396 346.55114 285.77098 345.79688 283.2168 345.79688 z M 190.26758 346.11914 L 190.26758 364.64453 L 192.82227 364.64453 L 192.82227 356.79297 L 195.69922 356.79297 L 200.13477 364.64453 L 203.17383 364.64453 L 198.17188 356.33594 C 200.83361 355.52935 202.17773 353.97124 202.17773 351.36328 C 202.17773 347.89497 199.75919 346.11914 195.13477 346.11914 L 190.26758 346.11914 z M 270.85742 346.11914 L 270.85742 361.95508 C 270.85742 364.42861 270.34508 365.50475 267.89844 366.47266 L 268.57227 368.32812 C 271.55663 367.38711 273.41016 365.93606 273.41016 362.06445 L 273.41016 346.11914 L 270.85742 346.11914 z M 112.74023 346.98047 L 110.26562 347.27539 L 110.26562 350.47656 L 107.79297 350.47656 L 107.79297 352.38477 L 110.26562 352.38477 L 110.26562 360.93359 C 110.26562 363.56844 111.69112 364.9668 114.08398 364.9668 C 115.29386 364.9668 116.31484 364.64527 117.25586 364 L 116.31641 362.35938 C 115.61737 362.73578 115.05198 362.92383 114.43359 362.92383 C 113.19683 362.92383 112.74023 362.25114 112.74023 360.82617 L 112.74023 352.38477 L 115.83203 352.38477 L 116.09961 350.47656 L 112.74023 350.47656 L 112.74023 346.98047 z M 136.89453 346.98047 L 134.42188 347.27539 L 134.42188 350.47656 L 131.94727 350.47656 L 131.94727 352.38477 L 134.42188 352.38477 L 134.42188 360.93359 C 134.42188 363.56844 135.84737 364.9668 138.24023 364.9668 C 139.45011 364.9668 140.47109 364.64527 141.41211 364 L 140.4707 362.35938 C 139.77166 362.73578 139.20823 362.92383 138.58984 362.92383 C 137.35308 362.92383 136.89453 362.25114 136.89453 360.82617 L 136.89453 352.38477 L 139.98633 352.38477 L 140.25586 350.47656 L 136.89453 350.47656 L 136.89453 346.98047 z M 192.82227 348.10938 L 195.10742 348.10938 C 198.14556 348.10938 199.46289 349.05107 199.46289 351.36328 C 199.46289 353.86369 197.98342 354.83203 195.40234 354.83203 L 192.82227 354.83203 L 192.82227 348.10938 z M 33.431641 350.15234 C 31.818471 350.15234 30.286842 350.93291 29.238281 352.38477 L 29.048828 350.47656 L 26.925781 350.47656 L 26.925781 370.37109 L 29.398438 370.07617 L 29.398438 363.35352 C 30.312567 364.45585 31.576864 364.9668 33.109375 364.9668 C 36.765894 364.9668 38.675781 361.84866 38.675781 357.54688 C 38.675781 353.08377 37.195704 350.15234 33.431641 350.15234 z M 49.046875 350.15234 C 47.32616 350.15234 46.008672 351.22756 45.255859 353.35156 L 45.013672 350.47656 L 42.888672 350.47656 L 42.888672 364.64453 L 45.363281 364.64453 L 45.363281 356.55273 C 45.954777 353.83723 46.975513 352.57227 48.75 352.57227 C 49.260837 352.57227 49.556149 352.62683 49.986328 352.73438 L 50.445312 350.31445 C 50.015134 350.20691 49.50394 350.15234 49.046875 350.15234 z M 57.365234 350.15234 C 53.708716 350.15234 51.476563 353.2977 51.476562 357.70703 C 51.476562 362.19702 53.789921 364.9668 57.742188 364.9668 C 59.704878 364.9668 61.291373 364.29569 62.689453 363.19336 L 61.613281 361.71484 C 60.376518 362.5752 59.327768 362.95117 57.929688 362.95117 C 55.886339 362.95117 54.353304 361.68636 54.111328 358.40625 L 63.146484 358.40625 C 63.173371 358.08362 63.199219 357.62653 63.199219 357.14258 C 63.199219 352.81391 61.18307 350.15234 57.365234 350.15234 z M 70.994141 350.15234 C 68.063549 350.15234 65.886719 351.79234 65.886719 354.05078 C 65.886719 356.04036 67.097086 357.35943 70.162109 358.16602 C 72.904498 358.89194 73.603516 359.42809 73.603516 360.82617 C 73.603516 362.17048 72.419599 362.97852 70.564453 362.97852 C 69.031942 362.97852 67.715156 362.46778 66.585938 361.60742 L 65.267578 363.11133 C 66.504342 364.18677 68.226272 364.9668 70.619141 364.9668 C 73.49596 364.9668 76.210938 363.62349 76.210938 360.66602 C 76.210938 358.19249 74.490224 357.00867 71.505859 356.25586 C 69.220535 355.66436 68.466797 355.12681 68.466797 353.9707 C 68.466797 352.84148 69.463002 352.11523 71.076172 352.11523 C 72.393594 352.11523 73.494163 352.51959 74.757812 353.32617 L 75.806641 351.76562 C 74.462332 350.74395 72.983717 350.15234 70.994141 350.15234 z M 84.566406 350.15234 C 80.909888 350.15234 78.677734 353.2977 78.677734 357.70703 C 78.677734 362.19702 80.991093 364.9668 84.943359 364.9668 C 86.906049 364.9668 88.492544 364.29569 89.890625 363.19336 L 88.814453 361.71484 C 87.577689 362.5752 86.52894 362.95117 85.130859 362.95117 C 83.087511 362.95117 81.554475 361.68636 81.3125 358.40625 L 90.347656 358.40625 C 90.374542 358.08362 90.400391 357.62653 90.400391 357.14258 C 90.400391 352.81391 88.384242 350.15234 84.566406 350.15234 z M 101.01953 350.15234 C 99.164386 350.15234 97.657355 351.12041 96.689453 352.57227 L 96.474609 350.47656 L 94.351562 350.47656 L 94.351562 364.64453 L 96.824219 364.64453 L 96.824219 354.58984 C 97.765235 353.08422 98.841451 352.08789 100.42773 352.08789 C 101.79893 352.08789 102.6582 352.70802 102.6582 354.83203 L 102.6582 364.64453 L 105.13281 364.64453 L 105.13281 354.48242 C 105.13281 351.79381 103.62749 350.15234 101.01953 350.15234 z M 124.17969 350.15234 C 122.5934 350.15234 121.03471 350.47583 119.28711 351.12109 L 119.9043 352.92188 C 121.35615 352.43792 122.6741 352.16992 123.72266 352.16992 C 125.68535 352.16992 126.67969 352.9215 126.67969 354.96484 L 126.67969 356.01367 L 124.50195 356.01367 C 120.54969 356.01367 118.26562 357.65327 118.26562 360.69141 C 118.26562 363.21871 119.9582 364.9668 122.78125 364.9668 C 124.50196 364.9668 126.00912 364.32249 127.00391 362.84375 C 127.43408 364.24183 128.34652 364.80548 129.77148 364.9668 L 130.33789 363.24609 C 129.61196 362.97723 129.1543 362.57465 129.1543 361.33789 L 129.1543 354.85742 C 129.1543 351.89994 127.59423 350.15234 124.17969 350.15234 z M 156.85938 350.15234 C 152.82645 350.15234 150.51562 353.19177 150.51562 357.57422 C 150.51562 362.06421 152.80106 364.9668 156.83398 364.9668 C 160.84002 364.9668 163.15234 361.92932 163.15234 357.54688 C 163.15234 353.05689 160.8923 350.15234 156.85938 350.15234 z M 173.90625 350.15234 C 172.0511 350.15234 170.54407 351.12041 169.57617 352.57227 L 169.36133 350.47656 L 167.23828 350.47656 L 167.23828 364.64453 L 169.71094 364.64453 L 169.71094 354.58984 C 170.65195 353.08422 171.72817 352.08789 173.31445 352.08789 C 174.68565 352.08789 175.54492 352.70802 175.54492 354.83203 L 175.54492 364.64453 L 178.01953 364.64453 L 178.01953 354.48242 C 178.01953 351.79381 176.51421 350.15234 173.90625 350.15234 z M 210.85742 350.15234 C 207.2009 350.15234 204.9707 353.2977 204.9707 357.70703 C 204.9707 362.19702 207.28211 364.9668 211.23438 364.9668 C 213.19707 364.9668 214.78356 364.29569 216.18164 363.19336 L 215.10547 361.71484 C 213.86871 362.5752 212.81996 362.95117 211.42188 362.95117 C 209.37853 362.95117 207.84744 361.68636 207.60547 358.40625 L 216.63867 358.40625 C 216.66556 358.08362 216.69336 357.62653 216.69336 357.14258 C 216.69336 352.81391 214.67526 350.15234 210.85742 350.15234 z M 238.53125 350.15234 C 234.87473 350.15234 232.64453 353.2977 232.64453 357.70703 C 232.64453 362.19702 234.95594 364.9668 238.9082 364.9668 C 240.87089 364.9668 242.45739 364.29569 243.85547 363.19336 L 242.7793 361.71484 C 241.54253 362.5752 240.49378 362.95117 239.0957 362.95117 C 237.05235 362.95117 235.52127 361.68636 235.2793 358.40625 L 244.3125 358.40625 C 244.33939 358.08362 244.36719 357.62653 244.36719 357.14258 C 244.36719 352.81391 242.34909 350.15234 238.53125 350.15234 z M 252.625 350.15234 C 251.03872 350.15234 249.47807 350.47583 247.73047 351.12109 L 248.34961 352.92188 C 249.80146 352.43792 251.11941 352.16992 252.16797 352.16992 C 254.13066 352.16992 255.125 352.9215 255.125 354.96484 L 255.125 356.01367 L 252.94727 356.01367 C 248.995 356.01367 246.70898 357.65327 246.70898 360.69141 C 246.70898 363.21871 248.40352 364.9668 251.22656 364.9668 C 252.94728 364.9668 254.45248 364.32249 255.44727 362.84375 C 255.87744 364.24183 256.79183 364.80548 258.2168 364.9668 L 258.78125 363.24609 C 258.05532 362.97723 257.59766 362.57465 257.59766 361.33789 L 257.59766 354.85742 C 257.59766 351.89994 256.03954 350.15234 252.625 350.15234 z M 143.97461 350.47656 L 143.97461 364.64453 L 146.44922 364.64453 L 146.44922 350.47656 L 143.97461 350.47656 z M 218.25195 350.47656 L 223.14648 364.64453 L 226.13086 364.64453 L 230.94336 350.47656 L 228.33398 350.47656 L 224.65039 362.43945 L 220.94141 350.47656 L 218.25195 350.47656 z M 32.814453 352.11523 C 34.93846 352.11523 36.013672 353.86347 36.013672 357.54688 C 36.013672 361.25717 34.776016 362.95117 32.517578 362.95117 C 31.227042 362.95117 30.124364 362.3328 29.398438 361.23047 L 29.398438 354.32031 C 30.15125 353.19109 31.308828 352.11523 32.814453 352.11523 z M 57.419922 352.11523 C 59.651474 352.11523 60.753906 353.64869 60.753906 356.41797 L 60.753906 356.57812 L 54.111328 356.57812 C 54.299531 353.43244 55.53789 352.11523 57.419922 352.11523 z M 84.621094 352.11523 C 86.852646 352.11523 87.955078 353.64869 87.955078 356.41797 L 87.955078 356.57812 L 81.3125 356.57812 C 81.500703 353.43244 82.739062 352.11523 84.621094 352.11523 z M 210.91211 352.11523 C 213.14366 352.11523 214.24609 353.64869 214.24609 356.41797 L 214.24609 356.57812 L 207.60547 356.57812 C 207.79367 353.43244 209.03008 352.11523 210.91211 352.11523 z M 238.58594 352.11523 C 240.81749 352.11523 241.91992 353.64869 241.91992 356.41797 L 241.91992 356.57812 L 235.2793 356.57812 C 235.4675 353.43244 236.70391 352.11523 238.58594 352.11523 z M 156.85938 352.14258 C 159.19847 352.14258 160.49023 353.86347 160.49023 357.54688 C 160.49023 361.25717 159.19997 362.97852 156.83398 362.97852 C 154.468 362.97852 153.17773 361.25762 153.17773 357.57422 C 153.17773 353.86393 154.49339 352.14258 156.85938 352.14258 z M 124.82617 357.6543 L 126.67969 357.6543 L 126.67969 360.9082 C 125.8731 362.38694 124.79756 363.11133 123.3457 363.11133 C 121.73253 363.11133 120.90039 362.22554 120.90039 360.55859 C 120.90039 358.62279 122.21821 357.6543 124.82617 357.6543 z M 253.26953 357.6543 L 255.125 357.6543 L 255.125 360.9082 C 254.31842 362.38694 253.24287 363.11133 251.79102 363.11133 C 250.17785 363.11133 249.34375 362.22554 249.34375 360.55859 C 249.34375 358.62279 250.66157 357.6543 253.26953 357.6543 z "
       transform="matrix(0.26458333,0,0,0.26458333,0,192)"
       id="flowRoot5050" />
  </g>
</svg>
